<svg width="362" height="269" viewBox="0 0 362 269" fill="none" xmlns="http://www.w3.org/2000/svg">
<path d="M244.064 218.914C234.374 237.062 218.497 252.057 198.385 257.037C195.77 257.684 193.119 258.179 190.447 258.521C176.311 260.337 161.464 257.284 149.609 249.368C144.577 246.006 140.125 241.833 135.069 238.507C130.013 235.182 124.081 232.684 118.061 233.282C112.879 233.797 108.225 236.523 103.586 238.891C92.6496 244.473 79.8431 248.382 68.1692 244.574C62.7974 242.824 57.7432 239.178 55.7978 233.881C51.4983 222.17 63.7578 210.375 63.0929 197.924C62.6676 189.956 57.0766 183.343 53.9992 175.98C48.7319 163.385 51.441 147.844 60.6596 137.776C69.8781 127.708 85.1183 123.635 98.1274 127.769C113.991 132.811 124.584 148.057 139.777 154.854C149.279 159.102 160.111 159.509 170.032 156.663C186.062 152.063 208.21 144.709 225.16 148.426C234.173 150.402 242.62 155.545 247.792 163.192C254.332 172.848 255.095 185.512 252.417 196.86C250.592 204.539 247.784 211.952 244.064 218.914Z" fill="url(#paint0_linear_116_265)"/>
<path d="M247.114 234.582C246.775 234.54 246.444 234.458 246.125 234.337C245.117 233.954 244.294 233.202 243.823 232.233C243.352 231.263 243.268 230.151 243.589 229.122C243.909 228.093 244.612 227.225 245.551 226.696C246.49 226.168 247.596 226.017 248.642 226.276C249.688 226.534 250.596 227.182 251.18 228.088C251.766 228.993 251.982 230.088 251.788 231.148C251.592 232.208 251 233.154 250.132 233.792C249.263 234.43 248.184 234.712 247.114 234.582ZM247.91 228.077C247.353 228.011 246.792 228.151 246.331 228.471C245.87 228.79 245.542 229.267 245.408 229.811C245.275 230.356 245.344 230.93 245.606 231.427C245.865 231.923 246.298 232.307 246.822 232.507C247.125 232.62 247.45 232.668 247.774 232.648C248.097 232.627 248.412 232.538 248.699 232.386C248.985 232.235 249.237 232.025 249.436 231.769C249.635 231.513 249.78 231.219 249.856 230.904C249.934 230.589 249.943 230.261 249.885 229.943C249.827 229.624 249.702 229.321 249.518 229.054C249.333 228.787 249.096 228.562 248.818 228.394C248.541 228.225 248.232 228.118 247.91 228.077Z" fill="#E7F6FF"/>
<path d="M242.737 238.565C243.095 237.61 242.613 236.544 241.656 236.185C240.701 235.825 239.637 236.309 239.277 237.264C238.918 238.219 239.4 239.284 240.355 239.644C241.312 240.003 242.377 239.52 242.737 238.565Z" fill="#E7F6FF"/>
<path d="M54.0102 210.518C52.9013 210.357 51.9005 209.766 51.2251 208.872C50.5496 207.978 50.2539 206.854 50.4023 205.743C50.5507 204.633 51.1311 203.626 52.0176 202.941C52.9041 202.255 54.025 201.947 55.1371 202.084C56.2492 202.22 57.2627 202.789 57.9575 203.668C58.6524 204.547 58.9725 205.665 58.8484 206.778C58.7243 207.892 58.166 208.911 57.2947 209.616C56.4235 210.32 55.3095 210.652 54.1947 210.54L54.0102 210.518ZM54.8068 204.015L54.7113 204.004C54.1092 203.943 53.5075 204.123 53.0369 204.503C52.5663 204.883 52.2647 205.434 52.1976 206.035C52.1305 206.637 52.3034 207.24 52.6786 207.715C53.0539 208.19 53.6012 208.497 54.2019 208.571C54.8025 208.644 55.4079 208.478 55.8867 208.108C56.3654 207.738 56.6788 207.194 56.7589 206.594C56.839 205.994 56.6793 205.387 56.3144 204.904C55.9495 204.422 55.4089 204.102 54.81 204.016L54.8068 204.015Z" fill="#E7F6FF"/>
<path d="M50.1312 217.236C51.1485 217.316 52.0383 216.557 52.1186 215.539C52.1989 214.522 51.4394 213.632 50.422 213.552C49.4047 213.472 48.5149 214.231 48.4346 215.249C48.3543 216.266 49.1138 217.156 50.1312 217.236Z" fill="#E7F6FF"/>
<path d="M168.223 155.205C167.215 155.083 166.284 154.603 165.599 153.854C164.914 153.105 164.52 152.135 164.488 151.12C164.456 150.105 164.789 149.112 165.425 148.322C166.062 147.531 166.961 146.994 167.959 146.808C168.957 146.622 169.989 146.8 170.867 147.309C171.745 147.819 172.413 148.625 172.748 149.584C173.083 150.542 173.064 151.589 172.694 152.535C172.324 153.48 171.628 154.262 170.731 154.739C169.963 155.147 169.087 155.31 168.223 155.205ZM169.006 148.703C168.417 148.63 167.822 148.788 167.345 149.143C166.869 149.498 166.548 150.023 166.45 150.609C166.351 151.194 166.482 151.796 166.816 152.287C167.15 152.779 167.66 153.122 168.241 153.247C168.822 153.371 169.428 153.266 169.934 152.954C170.44 152.642 170.805 152.147 170.955 151.572C171.105 150.997 171.027 150.387 170.737 149.868C170.448 149.349 169.97 148.962 169.402 148.788C169.273 148.748 169.14 148.719 169.006 148.703Z" fill="#E7F6FF"/>
<path d="M159.64 153.92C160.541 153.44 160.882 152.321 160.402 151.42C159.922 150.52 158.803 150.179 157.902 150.659C157.001 151.139 156.661 152.258 157.14 153.158C157.62 154.059 158.74 154.4 159.64 153.92Z" fill="#E7F6FF"/>
<path d="M258.946 188.402C259.164 186.623 258.665 184.829 257.562 183.416C256.457 182.003 254.837 181.087 253.057 180.869C252.908 180.851 252.76 180.833 252.613 180.829C252.64 180.685 252.663 180.538 252.682 180.389C252.798 179.435 252.71 178.468 252.423 177.55C252.136 176.633 251.658 175.788 251.018 175.07C250.378 174.353 249.594 173.78 248.715 173.389C247.838 172.999 246.886 172.801 245.926 172.807C244.964 172.813 244.016 173.025 243.142 173.426C242.27 173.828 241.492 174.411 240.863 175.137C240.233 175.863 239.766 176.715 239.49 177.636C239.216 178.557 239.14 179.526 239.27 180.478C238.531 179.79 237.648 179.277 236.684 178.975C235.72 178.674 234.702 178.592 233.703 178.736C232.703 178.879 231.75 179.245 230.909 179.805C230.07 180.366 229.368 181.107 228.851 181.975C228.335 182.843 228.021 183.815 227.93 184.82C227.84 185.826 227.975 186.839 228.328 187.785C228.678 188.731 229.237 189.586 229.963 190.288C230.689 190.99 231.562 191.52 232.52 191.841C232.791 192.953 233.339 193.978 234.115 194.821C234.889 195.663 235.867 196.295 236.951 196.656C238.037 197.018 239.199 197.099 240.324 196.89C241.448 196.681 242.503 196.19 243.387 195.462C244.114 196.165 244.989 196.696 245.949 197.016C246.909 197.335 247.926 197.436 248.929 197.31C249.934 197.184 250.895 196.834 251.746 196.287C252.597 195.739 253.312 195.008 253.843 194.147C255.176 193.821 256.378 193.096 257.29 192.07C258.201 191.044 258.779 189.765 258.946 188.402Z" fill="white"/>
<path d="M83.7433 150.564C83.8521 149.682 83.7862 148.788 83.5493 147.932C83.3123 147.075 82.909 146.274 82.3622 145.574C81.8156 144.874 81.1363 144.288 80.3631 143.851C79.5901 143.413 78.7383 143.132 77.8566 143.024C77.7077 143.006 77.5604 142.988 77.4129 142.984C77.4405 142.84 77.4634 142.693 77.4816 142.544C77.5983 141.591 77.5104 140.623 77.2235 139.705C76.9367 138.788 76.4577 137.943 75.8184 137.225C75.1791 136.508 74.3941 135.935 73.5159 135.545C72.6377 135.154 71.6864 134.956 70.7254 134.962C69.7645 134.968 68.8159 135.18 67.943 135.581C67.07 135.983 66.2928 136.567 65.663 137.292C65.0332 138.018 64.5654 138.87 64.2908 139.791C64.0161 140.712 63.9409 141.681 64.0702 142.633C63.3311 141.945 62.4475 141.432 61.4841 141.131C60.5208 140.829 59.5021 140.747 58.5029 140.891C57.5037 141.034 56.5494 141.4 55.7098 141.96C54.8703 142.521 54.167 143.262 53.6514 144.13C53.1359 144.998 52.8212 145.97 52.7305 146.976C52.6397 147.981 52.7753 148.994 53.1271 149.94C53.4789 150.886 54.0382 151.742 54.7638 152.443C55.4894 153.145 56.3629 153.676 57.3202 153.996C57.5913 155.107 58.14 156.132 58.9148 156.973C59.6897 157.815 60.6654 158.446 61.7506 158.808C62.8359 159.17 63.9952 159.25 65.12 159.042C66.2449 158.834 67.2985 158.343 68.1823 157.617C68.9093 158.32 69.7847 158.851 70.744 159.17C71.7033 159.49 72.7222 159.59 73.7255 159.464C74.7287 159.338 75.691 158.988 76.5413 158.441C77.3915 157.894 78.1082 157.163 78.6386 156.302C79.9709 155.976 81.1727 155.253 82.0845 154.228C82.9962 153.203 83.5747 151.925 83.7433 150.564Z" fill="white"/>
<path d="M195.51 261.184L98.9524 249.355L99.2102 247.25L195.768 259.08C196.047 259.114 196.301 259.258 196.474 259.479C196.647 259.701 196.725 259.982 196.691 260.261C196.657 260.54 196.513 260.794 196.292 260.967C196.07 261.14 195.789 261.218 195.51 261.184Z" fill="#426572"/>
<path d="M94.6337 248.826L88.7302 248.102C88.4511 248.068 88.1971 247.924 88.0239 247.703C87.8508 247.481 87.7727 247.2 87.8069 246.921C87.8411 246.642 87.9848 246.388 88.2063 246.215C88.4277 246.042 88.7089 245.964 88.988 245.998L94.8915 246.721C95.1706 246.755 95.4246 246.899 95.5977 247.12C95.7709 247.342 95.849 247.623 95.8148 247.902C95.7806 248.181 95.6369 248.435 95.4154 248.608C95.1939 248.782 94.9128 248.86 94.6337 248.826Z" fill="#426572"/>
<path d="M84.8985 247.633L83.0175 247.402C82.7384 247.368 82.4844 247.225 82.3113 247.003C82.1382 246.782 82.0601 246.5 82.0942 246.221C82.1284 245.942 82.2721 245.688 82.4936 245.515C82.7151 245.342 82.9963 245.264 83.2753 245.298L85.1563 245.529C85.4354 245.563 85.6894 245.706 85.8625 245.928C86.0357 246.149 86.1138 246.431 86.0796 246.71C86.0454 246.989 85.9017 247.243 85.6802 247.416C85.4587 247.589 85.1776 247.667 84.8985 247.633Z" fill="#426572"/>
<path d="M229.367 265.332L199.689 261.696L199.947 259.592L229.625 263.228C229.904 263.262 230.159 263.406 230.332 263.627C230.505 263.848 230.583 264.13 230.548 264.409C230.514 264.688 230.371 264.942 230.15 265.115C229.928 265.288 229.646 265.366 229.367 265.332Z" fill="#426572"/>
<path d="M77.6368 246.743L47.9573 243.107L48.2151 241.003L77.8946 244.639C78.1737 244.673 78.4277 244.817 78.6008 245.038C78.774 245.26 78.8521 245.541 78.8179 245.82C78.7837 246.099 78.64 246.353 78.4185 246.526C78.197 246.699 77.9159 246.777 77.6368 246.743Z" fill="#426572"/>
<path d="M97.1036 165.766L205.206 179.009C207.157 179.248 208.933 180.252 210.144 181.801C211.355 183.349 211.902 185.315 211.664 187.266L203.091 257.238L80.2714 242.191L88.8437 172.22C89.0836 170.268 90.0885 168.493 91.6375 167.282C93.1864 166.072 95.1526 165.527 97.1036 165.766Z" fill="#EBF0F9"/>
<path d="M207.639 184.754L93.8433 170.812L85.879 235.821L199.674 249.762L207.639 184.754Z" fill="#637F91"/>
<path d="M85.0407 235.595L200.173 249.7C200.11 250.216 199.845 250.686 199.436 251.008C199.027 251.329 198.508 251.475 197.992 251.415L86.7521 237.786C86.2343 237.723 85.763 237.456 85.4417 237.045C85.1205 236.635 84.9756 236.113 85.0391 235.595L85.0407 235.595Z" fill="white"/>
<g opacity="0.5">
<path opacity="0.5" d="M127.878 174.736L102.825 238.268L94.2565 237.218L119.31 173.686L127.878 174.736Z" fill="#A7BCD5"/>
<path opacity="0.5" d="M149.716 177.411L124.664 240.944L106.696 238.743L131.75 175.21L149.716 177.411Z" fill="#A7BCD5"/>
</g>
<path d="M203.944 258.328L79.1811 243.043L88.2568 168.963C88.4271 167.588 89.136 166.336 90.2281 165.482C91.3201 164.628 92.7063 164.243 94.0822 164.409L208.465 178.423C209.841 178.593 211.093 179.302 211.947 180.394C212.8 181.486 213.186 182.872 213.019 184.248L203.944 258.328ZM81.3616 241.339L202.239 256.148L211.077 184.01C211.181 183.149 210.94 182.282 210.406 181.598C209.872 180.915 209.088 180.472 208.227 180.365L93.8443 166.352C92.9833 166.247 92.1158 166.489 91.4324 167.023C90.7492 167.557 90.3056 168.34 90.1993 169.201L81.3616 241.339Z" fill="#426572"/>
<path d="M65.0654 237.977L222.159 257.223L222.096 257.739C221.89 259.414 221.028 260.938 219.7 261.977C218.37 263.015 216.683 263.484 215.009 263.279L70.5418 245.58C68.8676 245.375 67.3433 244.513 66.3044 243.184C65.2655 241.855 64.797 240.168 65.0022 238.493L65.0654 237.977Z" fill="#EBF0F9"/>
<path opacity="0.5" d="M220.951 260.417C220.496 261.273 219.791 261.97 218.931 262.417C218.072 262.864 217.095 263.04 216.134 262.922L68.557 244.842C67.5955 244.724 66.6922 244.318 65.9662 243.676C65.2402 243.035 64.7258 242.188 64.4905 241.248L220.951 260.417Z" fill="#A7BCD5"/>
<path d="M214.187 263.916L69.7211 246.217C67.7901 245.978 66.0327 244.983 64.8344 243.45C63.636 241.917 63.0947 239.972 63.3292 238.04L63.5115 236.552L222.547 256.036L222.365 257.524C222.127 259.455 221.131 261.213 219.598 262.411C218.064 263.609 216.118 264.15 214.187 263.916ZM65.2338 238.735C65.1844 240.082 65.6424 241.399 66.517 242.424C67.3918 243.45 68.6194 244.11 69.9575 244.274L214.425 261.973C215.763 262.137 217.113 261.793 218.21 261.009C219.307 260.224 220.069 259.057 220.346 257.738L65.2338 238.735Z" fill="#426572"/>
<path d="M200.327 250.457L84.5877 236.277L92.7451 169.692L208.485 183.871L200.327 250.457ZM86.7681 234.573L198.623 248.276L206.304 185.576L94.4496 171.872L86.7681 234.573Z" fill="#426572"/>
<path d="M192.8 161.754L182.324 247.266L104.753 237.762L115.229 152.251C115.279 151.866 115.479 151.516 115.785 151.277C116.091 151.037 116.479 150.928 116.864 150.972L191.516 160.118C191.604 160.129 191.69 160.148 191.775 160.174C192.103 160.278 192.384 160.492 192.572 160.78C192.759 161.068 192.84 161.413 192.8 161.754Z" fill="white"/>
<path d="M115.762 158.011L192.358 167.395L192.988 162.251L191.759 160.142L124.679 151.923L118.092 151.116L115.416 152.747L114.786 157.891L115.762 158.011Z" fill="#E2F2FF"/>
<path d="M183.421 248.386L103.907 238.644L114.502 152.162C114.584 151.519 114.916 150.934 115.426 150.535C115.937 150.136 116.584 149.955 117.228 150.031L191.876 159.176C192.519 159.258 193.103 159.59 193.502 160.1C193.902 160.611 194.083 161.259 194.007 161.902L183.421 248.386ZM106.088 236.94L181.717 246.205L192.074 161.665C192.086 161.537 192.049 161.409 191.97 161.308C191.89 161.206 191.775 161.139 191.648 161.12L116.996 151.974C116.868 151.962 116.74 151.999 116.639 152.079C116.537 152.158 116.47 152.273 116.451 152.401L106.088 236.94Z" fill="#426572"/>
<path d="M188.085 162.734L119.849 154.375C119.31 154.309 118.819 154.692 118.753 155.231C118.687 155.77 119.07 156.261 119.609 156.327L187.846 164.687C188.385 164.753 188.875 164.369 188.941 163.83C189.007 163.291 188.624 162.8 188.085 162.734Z" fill="#CADCE8"/>
<path d="M138.958 170.151L123.009 168.197L120.782 186.37L136.732 188.324L138.958 170.151Z" fill="#E8837E"/>
<path d="M178.282 174.968L140.464 170.335L138.237 188.508L176.056 193.142L178.282 174.968Z" fill="#E8837E"/>
<path d="M175.809 195.154L157.953 192.966L155.726 211.14L173.583 213.327L175.809 195.154Z" fill="#DDE4ED"/>
<path d="M156.447 192.782L120.737 188.407L118.51 206.58L154.221 210.955L156.447 192.782Z" fill="#DDE4ED"/>
<path d="M173.437 215.352L118.264 208.592L116.037 226.766L171.21 233.525L173.437 215.352Z" fill="#DDE4ED"/>
<path d="M171.398 236.027L157.25 234.294L157.013 236.237L171.16 237.97L171.398 236.027Z" fill="#DDE4ED"/>
<path d="M93.4841 231.681L70.3265 228.844C69.9448 228.8 69.5805 228.66 69.2672 228.438C68.8141 228.113 68.5566 227.639 68.6167 227.149L72.5297 195.316C72.5556 195.108 72.6365 194.911 72.7642 194.744C73.1215 194.268 73.8308 193.991 74.5981 194.085L97.7557 196.922C98.5651 197.021 99.1985 197.496 99.4035 198.076C99.466 198.249 99.4873 198.433 99.4657 198.615L95.5541 230.449C95.4641 231.184 94.6783 231.71 93.7482 231.698C93.6599 231.698 93.5717 231.692 93.4841 231.681Z" fill="white"/>
<path d="M94.1437 231.514L70.9786 228.671C70.5971 228.627 70.2326 228.487 69.9193 228.265C69.4662 227.94 69.2087 227.467 69.2688 226.976L73.1818 195.144C73.2077 194.935 73.2886 194.738 73.4163 194.571C73.7736 194.096 74.4829 193.818 75.2502 193.912L75.5658 193.95L71.7208 225.295C71.6613 225.781 71.9214 226.259 72.3713 226.584C72.6846 226.806 73.049 226.946 73.4306 226.99L96.2742 229.788L96.2147 230.274C96.1246 231.009 95.3389 231.535 94.4087 231.523C94.3203 231.525 94.2318 231.522 94.1437 231.514Z" fill="#D6DEE9"/>
<path d="M93.709 232.446L70.5498 229.609C70.0034 229.545 69.482 229.344 69.0343 229.024C68.2799 228.476 67.8878 227.653 67.9894 226.824L71.9024 194.992C71.9508 194.612 72.0986 194.252 72.3309 193.948C72.9186 193.174 73.9535 192.773 75.0624 192.909L98.22 195.746C99.3531 195.885 100.296 196.568 100.65 197.491L100.755 197.706L100.744 197.797C100.799 198.038 100.812 198.287 100.782 198.533L96.8688 230.365C96.7193 231.586 95.518 232.5 94.0787 232.473C93.9551 232.471 93.8316 232.462 93.709 232.446ZM74.8205 194.843C74.3851 194.79 74.0216 194.941 73.8897 195.118C73.8645 195.148 73.8481 195.184 73.8424 195.223L69.9294 227.055C69.9163 227.162 70.0178 227.312 70.1822 227.433C70.3622 227.558 70.5704 227.637 70.7884 227.661L93.946 230.499C93.9968 230.505 94.048 230.509 94.0992 230.509C94.5911 230.517 94.9061 230.279 94.9259 230.117L98.8389 198.285C98.8413 198.266 98.8404 198.246 98.8362 198.227L98.7626 198.077C98.5634 197.848 98.2825 197.705 97.9798 197.68L74.8222 194.843L74.8205 194.843Z" fill="#426572"/>
<path d="M93.6981 210.406L77.9932 208.482L77.7552 210.425L93.4602 212.349L93.6981 210.406Z" fill="#426572"/>
<path d="M94.1947 206.353L78.4897 204.429L78.2518 206.372L93.9567 208.296L94.1947 206.353Z" fill="#426572"/>
<path d="M93.1356 214.999L77.4307 213.075L77.1927 215.017L92.8977 216.941L93.1356 214.999Z" fill="#426572"/>
<path opacity="0.2" d="M223.683 189.232C225.075 187.247 226.055 185.003 226.565 182.634C227.076 180.264 227.106 177.816 226.655 175.434C226.204 173.052 225.279 170.784 223.938 168.765C222.597 166.746 220.865 165.016 218.844 163.678C216.822 162.339 214.554 161.419 212.171 160.971C209.789 160.523 207.341 160.557 204.972 161.071C202.603 161.585 200.36 162.568 198.377 163.962C196.394 165.357 194.711 167.134 193.426 169.19C191.697 171.657 190.609 174.516 190.26 177.508C189.912 180.5 190.313 183.533 191.429 186.331C192.544 189.13 194.338 191.607 196.649 193.539C198.961 195.471 201.716 196.798 204.668 197.4C204.133 197.459 203.593 197.494 203.047 197.505C205.819 198.258 208.73 198.342 211.541 197.75C214.351 197.159 216.981 195.909 219.215 194.103C220.989 192.766 222.505 191.115 223.683 189.232Z" fill="#606060"/>
<path d="M204.601 193.121C214.551 194.34 223.606 187.262 224.825 177.312C226.044 167.361 218.966 158.307 209.016 157.088C199.065 155.869 190.011 162.947 188.792 172.897C187.573 182.847 194.651 191.902 204.601 193.121Z" fill="#A8EF9E"/>
<path d="M223.807 178.494C223.491 181.077 222.621 183.561 221.26 185.779C219.899 187.997 218.076 189.896 215.917 191.348C213.757 192.8 211.31 193.771 208.742 194.194C206.175 194.617 203.546 194.484 201.034 193.802C205.397 193.707 209.58 192.044 212.817 189.117C216.054 186.189 218.128 182.194 218.658 177.862C219.189 173.53 218.142 169.152 215.707 165.53C213.272 161.908 209.615 159.284 205.403 158.139C208.006 158.084 210.589 158.589 212.979 159.619C215.37 160.65 217.51 162.182 219.255 164.113C221 166.043 222.311 168.327 223.096 170.808C223.883 173.289 224.126 175.911 223.809 178.494L223.807 178.494Z" fill="#A7E59C"/>
<path d="M203.948 194.896C200.193 194.436 196.658 192.873 193.791 190.404C190.924 187.935 188.854 184.671 187.842 181.026C186.83 177.38 186.921 173.516 188.105 169.923C189.289 166.329 191.512 163.167 194.493 160.837C197.474 158.507 201.078 157.113 204.852 156.832C208.625 156.55 212.396 157.394 215.69 159.256C218.983 161.119 221.65 163.916 223.354 167.294C225.058 170.672 225.722 174.479 225.262 178.235C224.64 183.268 222.047 187.849 218.051 190.973C214.055 194.097 208.983 195.507 203.948 194.896ZM208.362 158.865C204.991 158.452 201.573 159.048 198.541 160.577C195.508 162.107 192.997 164.501 191.326 167.458C189.654 170.414 188.896 173.8 189.149 177.187C189.402 180.574 190.653 183.811 192.745 186.486C194.836 189.162 197.675 191.158 200.901 192.221C204.126 193.283 207.595 193.366 210.868 192.457C214.141 191.549 217.07 189.69 219.286 187.116C221.502 184.543 222.906 181.37 223.319 177.998C223.868 173.479 222.602 168.926 219.798 165.339C216.993 161.751 212.881 159.423 208.362 158.865Z" fill="#426572"/>
<path d="M216.277 169.657C215.915 169.392 215.464 169.277 215.02 169.337C214.576 169.398 214.172 169.628 213.893 169.979L210.149 174.696L204.168 182.224L204.001 182.435L198.81 177.127L197.864 176.16C197.243 175.525 196.227 175.225 195.476 175.867C194.838 176.412 194.52 177.575 195.184 178.255L201.858 185.079L202.804 186.046C203.197 186.449 203.588 186.691 204.165 186.685C204.423 186.685 204.677 186.625 204.908 186.511C205.139 186.397 205.341 186.231 205.498 186.026L209.242 181.31L215.225 173.783L216.606 172.043C217.153 171.345 217.02 170.178 216.277 169.657Z" fill="white"/>
<path d="M353.457 95.6196C347.731 110.444 336.967 123.432 322.015 129.139C320.071 129.881 318.085 130.51 316.068 131.023C305.401 133.742 293.731 132.796 283.897 127.841C279.724 125.736 275.918 122.954 271.73 120.88C267.541 118.805 262.758 117.447 258.199 118.471C254.274 119.353 250.962 121.88 247.628 124.131C239.767 129.438 230.315 133.638 221.007 131.815C216.724 130.977 212.507 128.657 210.517 124.778C206.121 116.203 214.412 106.009 212.733 96.5253C211.659 90.456 206.751 85.9109 203.7 80.5546C198.478 71.3927 199.096 59.2225 205.218 50.6376C211.34 42.0526 222.642 37.4987 233.005 39.4462C245.641 41.8221 255.195 52.5158 267.482 56.3C275.166 58.6645 283.509 57.959 290.848 54.845C302.706 49.8125 318.997 42.0941 332.341 43.3513C339.437 44.0203 346.397 47.1696 351.081 52.5473C357.001 59.3359 358.776 68.974 357.789 77.9256C357.111 83.9852 355.655 89.9322 353.457 95.6196Z" fill="url(#paint1_linear_116_265)"/>
<path d="M357.266 107.345C357.003 107.345 356.741 107.313 356.485 107.251C355.676 107.052 354.975 106.552 354.522 105.853C354.07 105.155 353.901 104.309 354.051 103.49C354.2 102.671 354.657 101.94 355.327 101.447C355.997 100.953 356.831 100.734 357.658 100.834C358.484 100.934 359.241 101.345 359.774 101.985C360.308 102.624 360.577 103.443 360.527 104.274C360.477 105.105 360.112 105.885 359.506 106.456C358.9 107.027 358.099 107.345 357.266 107.345ZM357.266 102.284C356.833 102.285 356.416 102.445 356.092 102.733C355.768 103.022 355.562 103.418 355.51 103.848C355.46 104.278 355.567 104.712 355.813 105.068C356.059 105.424 356.427 105.678 356.848 105.782C357.091 105.841 357.344 105.847 357.591 105.8C357.837 105.754 358.07 105.656 358.275 105.513C358.48 105.37 358.654 105.185 358.783 104.971C358.911 104.756 358.994 104.517 359.023 104.268C359.053 104.019 359.03 103.767 358.955 103.528C358.881 103.289 358.756 103.069 358.59 102.881C358.424 102.694 358.221 102.544 357.992 102.441C357.764 102.338 357.517 102.284 357.266 102.284Z" fill="#E7F6FF"/>
<path d="M354.284 110.811C354.469 110.045 354 109.273 353.232 109.087C352.466 108.901 351.696 109.372 351.509 110.138C351.324 110.904 351.794 111.676 352.56 111.861C353.327 112.047 354.098 111.577 354.284 110.811Z" fill="#E7F6FF"/>
<path d="M206.952 107.034C206.087 107.015 205.264 106.656 204.662 106.034C204.061 105.412 203.728 104.578 203.738 103.712C203.747 102.847 204.098 102.02 204.713 101.412C205.328 100.803 206.159 100.462 207.024 100.462C207.89 100.462 208.72 100.803 209.335 101.412C209.951 102.02 210.301 102.847 210.311 103.712C210.32 104.578 209.988 105.412 209.386 106.034C208.784 106.656 207.961 107.015 207.096 107.034H206.952ZM206.952 101.974H206.878C206.411 101.984 205.966 102.178 205.641 102.514C205.316 102.85 205.137 103.3 205.142 103.767C205.147 104.235 205.336 104.681 205.668 105.01C206 105.339 206.449 105.523 206.916 105.523C207.384 105.523 207.832 105.339 208.165 105.01C208.497 104.681 208.686 104.235 208.691 103.767C208.696 103.3 208.517 102.85 208.192 102.514C207.867 102.178 207.422 101.984 206.955 101.974H206.952Z" fill="#E7F6FF"/>
<path d="M204.609 112.549C205.397 112.515 206.008 111.849 205.974 111.062C205.94 110.274 205.274 109.663 204.486 109.697C203.699 109.731 203.088 110.397 203.122 111.185C203.156 111.972 203.822 112.583 204.609 112.549Z" fill="#E7F6FF"/>
<path d="M289.324 53.8976C288.54 53.8982 287.781 53.6182 287.186 53.108C286.59 52.5978 286.197 51.8912 286.077 51.1162C285.957 50.3411 286.119 49.5487 286.533 48.8825C286.946 48.2163 287.585 47.7203 288.333 47.4842C289.081 47.2481 289.888 47.2876 290.61 47.5954C291.331 47.9033 291.918 48.4592 292.265 49.1625C292.612 49.8659 292.696 50.6702 292.501 51.4299C292.306 52.1897 291.846 52.8546 291.204 53.3043C290.653 53.6898 289.997 53.8969 289.324 53.8976ZM289.314 48.8385C288.855 48.8381 288.414 49.0147 288.082 49.3316C287.75 49.6486 287.553 50.0813 287.533 50.5398C287.512 50.9982 287.669 51.4469 287.971 51.7924C288.273 52.1378 288.697 52.3533 289.154 52.394C289.611 52.4347 290.066 52.2975 290.425 52.0108C290.783 51.7242 291.017 51.3104 291.078 50.8555C291.138 50.4007 291.021 49.9399 290.751 49.5693C290.48 49.1987 290.077 48.9469 289.625 48.8662C289.523 48.8479 289.418 48.8387 289.314 48.8385Z" fill="#E7F6FF"/>
<path d="M282.623 53.7182C283.268 53.2655 283.425 52.3755 282.972 51.7301C282.52 51.0847 281.63 50.9284 280.984 51.381C280.339 51.8336 280.183 52.7236 280.635 53.3691C281.088 54.0144 281.978 54.1708 282.623 53.7182Z" fill="#E7F6FF"/>
<path d="M362 70.8282C362 69.4431 361.45 68.1146 360.471 67.1352C359.491 66.1556 358.163 65.6054 356.777 65.6054C356.661 65.6054 356.547 65.6054 356.433 65.6167C356.441 65.5033 356.445 65.3887 356.445 65.2728C356.445 64.5306 356.286 63.7968 355.98 63.1206C355.674 62.4442 355.228 61.8409 354.67 61.3509C354.112 60.8609 353.457 60.4953 352.746 60.2786C352.037 60.0618 351.289 59.999 350.553 60.0941C349.816 60.1893 349.109 60.4403 348.477 60.8303C347.846 61.2204 347.304 61.7407 346.89 62.3563C346.475 62.972 346.197 63.669 346.072 64.4008C345.949 65.1327 345.982 65.8826 346.17 66.6005C345.539 66.1429 344.814 65.8322 344.047 65.6915C343.279 65.5508 342.491 65.5837 341.739 65.7876C340.985 65.9915 340.289 66.3613 339.697 66.87C339.106 67.3787 338.637 68.0132 338.322 68.7269C338.009 69.4408 337.859 70.2158 337.884 70.9952C337.909 71.7746 338.108 72.5384 338.467 73.2308C338.825 73.9232 339.334 74.5264 339.956 74.9963C340.579 75.4663 341.298 75.7909 342.063 75.9464C342.375 76.7738 342.891 77.5084 343.565 78.0815C344.238 78.6544 345.047 79.0471 345.914 79.2226C346.779 79.398 347.677 79.3507 348.52 79.0849C349.363 78.8189 350.125 78.3433 350.734 77.7024C351.358 78.1731 352.079 78.4978 352.844 78.6528C353.61 78.8078 354.4 78.7892 355.157 78.5982C355.916 78.4073 356.62 78.0487 357.221 77.5494C357.822 77.0499 358.302 76.4221 358.628 75.7121C359.619 75.3363 360.472 74.6679 361.076 73.7956C361.678 72.9232 362 71.8883 362 70.8282Z" fill="white"/>
<path d="M224.117 58.2739C224.118 57.5877 223.983 56.9081 223.721 56.274C223.459 55.6398 223.075 55.0635 222.59 54.578C222.105 54.0925 221.529 53.7073 220.895 53.4445C220.261 53.1816 219.582 53.0462 218.896 53.0461C218.78 53.0461 218.665 53.0461 218.552 53.0574C218.559 52.944 218.563 52.8294 218.563 52.7135C218.563 51.9713 218.405 51.2375 218.099 50.5612C217.793 49.8849 217.346 49.2817 216.788 48.7916C216.231 48.3016 215.575 47.936 214.865 47.7193C214.155 47.5026 213.407 47.4397 212.671 47.5348C211.935 47.63 211.227 47.8809 210.596 48.271C209.964 48.6611 209.423 49.1813 209.009 49.797C208.594 50.4127 208.315 51.1097 208.191 51.8415C208.067 52.5734 208.1 53.3233 208.289 54.0413C207.658 53.5835 206.932 53.2728 206.165 53.1322C205.398 52.9915 204.609 53.0244 203.857 53.2282C203.104 53.4322 202.407 53.802 201.816 54.3107C201.225 54.8194 200.755 55.4539 200.441 56.1677C200.128 56.8816 199.978 57.6565 200.003 58.4359C200.028 59.2152 200.227 59.9791 200.585 60.6714C200.944 61.3639 201.453 61.9672 202.075 62.437C202.697 62.9069 203.417 63.2317 204.181 63.3871C204.493 64.2137 205.01 64.9477 205.683 65.5201C206.356 66.0926 207.164 66.4849 208.03 66.6604C208.896 66.8359 209.792 66.7886 210.635 66.5233C211.478 66.258 212.24 65.7831 212.849 65.1432C213.473 65.6138 214.194 65.9386 214.959 66.0935C215.725 66.2486 216.515 66.2299 217.273 66.0388C218.03 65.8479 218.735 65.4895 219.335 64.99C219.936 64.4905 220.417 63.8628 220.743 63.1528C221.733 62.7778 222.587 62.1103 223.19 61.2389C223.792 60.3676 224.116 59.3335 224.117 58.2739Z" fill="white"/>
<path d="M320.2 132.589H245.058V130.951H320.2C320.417 130.951 320.625 131.037 320.779 131.191C320.932 131.344 321.019 131.553 321.019 131.77C321.019 131.987 320.932 132.195 320.779 132.349C320.625 132.503 320.417 132.589 320.2 132.589Z" fill="#426572"/>
<path d="M241.697 132.589H237.103C236.885 132.589 236.677 132.503 236.524 132.349C236.37 132.195 236.284 131.987 236.284 131.77C236.284 131.553 236.37 131.344 236.524 131.191C236.677 131.037 236.885 130.951 237.103 130.951H241.697C241.914 130.951 242.122 131.037 242.276 131.191C242.429 131.344 242.516 131.553 242.516 131.77C242.516 131.987 242.429 132.195 242.276 132.349C242.122 132.503 241.914 132.589 241.697 132.589Z" fill="#426572"/>
<path d="M234.121 132.589H232.657C232.44 132.589 232.232 132.503 232.078 132.349C231.924 132.195 231.838 131.987 231.838 131.77C231.838 131.553 231.924 131.344 232.078 131.191C232.232 131.037 232.44 130.951 232.657 130.951H234.121C234.338 130.951 234.546 131.037 234.7 131.191C234.853 131.344 234.94 131.553 234.94 131.77C234.94 131.987 234.853 132.195 234.7 132.349C234.546 132.503 234.338 132.589 234.121 132.589Z" fill="#426572"/>
<path d="M346.548 132.589H323.452V130.951H346.548C346.765 130.951 346.974 131.037 347.128 131.191C347.281 131.344 347.367 131.553 347.367 131.77C347.367 131.987 347.281 132.195 347.128 132.349C346.974 132.503 346.765 132.589 346.548 132.589Z" fill="#426572"/>
<path d="M228.47 132.589H205.373V130.951H228.47C228.687 130.951 228.895 131.037 229.049 131.191C229.202 131.344 229.289 131.553 229.289 131.77C229.289 131.987 229.202 132.195 229.049 132.349C228.895 132.503 228.687 132.589 228.47 132.589Z" fill="#426572"/>
<path d="M232.031 68.6591H324.082C324.303 68.6591 324.522 68.7025 324.726 68.787C324.931 68.8717 325.116 68.9957 325.272 69.152C325.429 69.3082 325.553 69.4937 325.637 69.6979C325.722 69.9021 325.765 70.121 325.765 70.342V128.731H230.348V70.342C230.348 70.121 230.391 69.9021 230.476 69.6979C230.561 69.4937 230.684 69.3082 230.841 69.152C230.997 68.9957 231.183 68.8717 231.387 68.787C231.591 68.7025 231.81 68.6591 232.031 68.6591Z" fill="#EBF0F9"/>
<path d="M322.446 72.8274H234.043V123.33H322.446V72.8274Z" fill="#637F91"/>
<path d="M233.383 123.235H322.823C322.823 123.636 322.663 124.021 322.38 124.304C322.096 124.588 321.712 124.747 321.311 124.747H234.894C234.493 124.747 234.109 124.588 233.825 124.304C233.542 124.021 233.383 123.636 233.383 123.235Z" fill="white"/>
<g opacity="0.5">
<path opacity="0.5" d="M260.459 72.6384L247.242 123.614H240.586L253.803 72.6384H260.459Z" fill="#A7BCD5"/>
<path opacity="0.5" d="M277.426 72.6383L264.208 123.614H250.25L263.467 72.6383H277.426Z" fill="#A7BCD5"/>
</g>
<path d="M326.517 129.487H229.592V74.3857C229.594 72.6671 230.278 71.0195 231.493 69.8041C232.708 68.5889 234.356 67.9052 236.075 67.9033H272.367V69.415H236.075C234.757 69.4166 233.493 69.9408 232.561 70.8727C231.63 71.8045 231.105 73.0679 231.104 74.3857V127.975H325.006V70.7917C325.005 70.4267 324.86 70.0767 324.602 69.8186C324.344 69.5605 323.994 69.4152 323.629 69.415H289.12V67.9033H323.629C324.394 67.9056 325.128 68.2107 325.669 68.7519C326.21 69.293 326.515 70.0265 326.517 70.7917V129.487Z" fill="#426572"/>
<path d="M218.314 126.929H340.353V127.322C340.353 128.625 339.835 129.875 338.914 130.796C337.992 131.717 336.742 132.235 335.44 132.235H223.227C221.924 132.235 220.674 131.717 219.753 130.796C218.831 129.875 218.314 128.625 218.314 127.322V126.929Z" fill="#EBF0F9"/>
<path opacity="0.5" d="M339.73 129.49C339.461 130.187 338.988 130.787 338.372 131.209C337.756 131.632 337.026 131.858 336.279 131.858H221.631C220.884 131.858 220.154 131.632 219.538 131.209C218.922 130.787 218.449 130.187 218.18 129.49H339.73Z" fill="#A7BCD5"/>
<path d="M334.872 132.804H222.658C221.156 132.802 219.715 132.205 218.652 131.142C217.589 130.079 216.991 128.638 216.99 127.135V125.987H340.541V127.135C340.539 128.638 339.941 130.079 338.879 131.142C337.816 132.205 336.375 132.802 334.872 132.804ZM218.518 127.497C218.608 128.533 219.084 129.497 219.851 130.199C220.618 130.902 221.62 131.291 222.66 131.291H334.873C335.912 131.291 336.915 130.902 337.682 130.199C338.448 129.497 338.924 128.533 339.015 127.497H218.518Z" fill="#426572"/>
<path d="M323.012 123.802H233.098V72.0715H323.012V123.802ZM234.608 122.29H321.5V73.5832H234.61L234.608 122.29Z" fill="#426572"/>
<path d="M338.079 84.9562V98.8849C338.077 99.185 337.957 99.4722 337.745 99.6845C337.533 99.8966 337.245 100.017 336.946 100.019H312.212C312.053 100.019 311.896 99.9856 311.751 99.9204C311.55 99.8317 311.379 99.6864 311.259 99.5019C311.138 99.3177 311.075 99.1024 311.075 98.8824V84.9562C311.074 84.7264 311.144 84.502 311.274 84.3126C311.404 84.1232 311.588 83.9778 311.803 83.8955C311.932 83.8453 312.07 83.8197 312.208 83.8199H336.938C337.211 83.8208 337.476 83.9201 337.684 84.0999C337.89 84.2795 338.025 84.5277 338.064 84.7987C338.073 84.8508 338.078 84.9034 338.079 84.9562Z" fill="white"/>
<path d="M337.89 84.5768V98.5055C337.888 98.8055 337.768 99.0928 337.557 99.305C337.344 99.5172 337.056 99.6373 336.757 99.6392H312.023C311.864 99.6396 311.707 99.6061 311.562 99.541C311.361 99.4523 311.19 99.3069 311.07 99.1226C310.949 98.9383 310.886 98.723 310.886 98.503V98.314H335.237C335.537 98.3121 335.824 98.1919 336.037 97.9798C336.249 97.7677 336.369 97.4803 336.371 97.1803V83.4405H336.749C337.022 83.4414 337.287 83.5408 337.495 83.7204C337.701 83.9002 337.836 84.1482 337.875 84.4193C337.884 84.4714 337.889 84.524 337.89 84.5768Z" fill="#D6DEE9"/>
<path d="M336.753 100.588H312.023C311.757 100.589 311.494 100.532 311.252 100.423C310.918 100.275 310.634 100.032 310.434 99.7254C310.235 99.4186 310.129 99.0606 310.13 98.6947V84.7673C310.132 84.393 310.244 84.0275 310.452 83.7166C310.66 83.4055 310.956 83.1629 311.301 83.0188L311.427 82.9508H311.488C311.66 82.9003 311.838 82.8748 312.018 82.8752H336.748C337.204 82.8768 337.643 83.0422 337.987 83.3413C338.331 83.6402 338.556 84.0529 338.622 84.504C338.635 84.5912 338.641 84.6792 338.641 84.7673V98.696C338.642 99.0895 338.519 99.4734 338.289 99.7932C338.114 100.038 337.884 100.238 337.617 100.376C337.35 100.514 337.054 100.587 336.753 100.588ZM311.796 84.4637C311.748 84.4987 311.709 84.5447 311.682 84.5976C311.655 84.6505 311.641 84.7091 311.641 84.7685V98.696C311.641 98.77 311.663 98.8423 311.703 98.904C311.744 98.9658 311.801 99.0143 311.869 99.0437C311.918 99.0655 311.97 99.0767 312.023 99.0764H336.753C336.813 99.0763 336.873 99.0616 336.928 99.0332C336.982 99.0049 337.027 98.964 337.062 98.9139C337.108 98.8499 337.133 98.7734 337.133 98.6947V84.7673C337.134 84.7514 337.134 84.7354 337.133 84.7194C337.12 84.6276 337.076 84.5432 337.007 84.4818C336.936 84.4205 336.848 84.3863 336.755 84.3856H312.023C311.988 84.3855 311.952 84.3906 311.918 84.4007L311.796 84.4637Z" fill="#426572"/>
<path d="M318.036 91.1287C317.661 90.9043 317.253 90.7423 316.826 90.6487C317.044 90.5132 317.223 90.3242 317.347 90.0996C317.47 89.8751 317.534 89.6225 317.532 89.3663C317.529 89.1061 317.459 88.851 317.328 88.626C317.197 88.401 317.01 88.2139 316.785 88.083C316.56 87.9523 316.305 87.8821 316.045 87.8796C315.785 87.8771 315.528 87.9423 315.301 88.0688C315.073 88.1953 314.883 88.3787 314.747 88.601C314.612 88.8234 314.537 89.0771 314.529 89.3373C314.522 89.5975 314.582 89.8551 314.704 90.085C314.826 90.3149 315.006 90.5091 315.225 90.6487C314.781 90.7376 314.355 90.9012 313.966 91.1324C313.87 91.1948 313.79 91.2786 313.733 91.3772C313.675 91.4758 313.641 91.5866 313.634 91.7006V93.5007C313.634 93.6009 313.674 93.697 313.745 93.7679C313.816 93.8388 313.912 93.8786 314.012 93.8786H317.992C318.092 93.8786 318.188 93.8388 318.259 93.7679C318.33 93.697 318.37 93.6009 318.37 93.5007V91.6981C318.364 91.5832 318.331 91.4713 318.273 91.372C318.215 91.2729 318.133 91.1893 318.036 91.1287Z" fill="#426572"/>
<path d="M333.911 86.1755H320.646V87.6871H333.911V86.1755Z" fill="#426572"/>
<path d="M329.173 88.8283H320.646V90.34H329.173V88.8283Z" fill="#426572"/>
<path d="M333.722 94.0399H320.646V95.5516H333.722V94.0399Z" fill="#426572"/>
<path d="M279.44 132.143C279.44 132.143 299.603 122.065 299.603 106.94V86.7754L279.44 81.7365L259.277 86.7754V106.938C259.277 122.061 279.44 132.143 279.44 132.143Z" fill="#E8837E"/>
<path d="M283.437 130.286C282.142 131.141 280.804 131.929 279.428 132.647C279.428 132.647 259.265 122.569 259.265 107.442V87.2793L263.674 86.177V103.27C263.674 116.447 276.994 126.299 283.437 130.286Z" fill="#D66765"/>
<path d="M279.037 132.987L278.7 132.818C278.491 132.713 273.513 130.204 268.458 125.78C265.474 123.168 263.093 120.435 261.381 117.652C259.216 114.134 258.118 110.53 258.118 106.944V86.1855L279.037 80.9551L279.221 81.0005L299.956 86.1842V106.938C299.956 110.53 298.859 114.134 296.694 117.646C294.982 120.428 292.601 123.162 289.616 125.773C284.561 130.198 279.584 132.702 279.375 132.812L279.037 132.987ZM259.63 87.3659V106.938C259.63 110.245 260.652 113.583 262.669 116.86C264.306 119.513 266.584 122.132 269.453 124.642C272.399 127.197 275.613 129.426 279.037 131.29C282.471 129.42 285.693 127.184 288.646 124.621C291.51 122.111 293.787 119.496 295.415 116.851C297.43 113.576 298.438 110.246 298.438 106.944V87.3659L279.037 82.5134L259.63 87.3659Z" fill="#426572"/>
<path d="M267.324 114.684L276.037 121.654L277.274 122.644C277.957 123.191 278.604 123.492 279.496 123.372C279.893 123.325 280.274 123.186 280.609 122.968C280.944 122.749 281.224 122.457 281.428 122.113L290.964 106.521L292.325 104.298C293.048 103.116 292.622 101.336 291.376 100.679C290.088 99.9971 288.528 100.366 287.757 101.627L278.221 117.217L276.861 119.441L281.018 118.906L272.308 111.938L271.071 110.948C269.993 110.085 268.369 109.814 267.33 110.948C266.448 111.908 266.176 113.766 267.33 114.689L267.324 114.684Z" fill="white"/>
<path opacity="0.2" d="M244.846 82.4608C245.727 80.8082 246.267 78.9959 246.436 77.131C246.605 75.266 246.398 73.3863 245.829 71.6024C245.259 69.8186 244.338 68.167 243.12 66.7449C241.901 65.3229 240.411 64.1593 238.735 63.3227C237.06 62.4862 235.234 61.9936 233.365 61.8742C231.497 61.7548 229.623 62.0109 227.855 62.6272C226.087 63.2438 224.46 64.2082 223.071 65.4635C221.681 66.7189 220.557 68.2398 219.765 69.9366C218.671 71.9906 218.106 74.2844 218.12 76.6114C218.133 78.9385 218.726 81.2255 219.844 83.2664C220.962 85.3072 222.57 87.0378 224.524 88.3022C226.477 89.5666 228.715 90.3251 231.035 90.5091C230.63 90.6049 230.219 90.6825 229.801 90.7422C231.997 91.0587 234.237 90.8498 236.337 90.1323C238.436 89.4149 240.335 88.2096 241.878 86.6153C243.113 85.4233 244.119 84.0151 244.846 82.4608Z" fill="#606060"/>
<path d="M230.581 87.2347C238.324 87.2347 244.602 80.9574 244.602 73.214C244.602 65.4707 238.324 59.1934 230.581 59.1934C222.838 59.1934 216.56 65.4707 216.56 73.214C216.56 80.9574 222.838 87.2347 230.581 87.2347Z" fill="#A8EF9E"/>
<path d="M243.933 74.216C243.932 76.2262 243.5 78.2128 242.664 80.0412C241.829 81.8695 240.61 83.4968 239.09 84.8129C237.571 86.1289 235.786 87.1028 233.857 87.6685C231.928 88.2343 229.9 88.3786 227.91 88.0918C231.247 87.6096 234.298 85.9413 236.504 83.3929C238.711 80.8445 239.925 77.5864 239.925 74.2153C239.925 70.8443 238.711 67.5862 236.504 65.0378C234.298 62.4894 231.247 60.8212 227.91 60.3389C229.9 60.0519 231.929 60.1962 233.858 60.7619C235.787 61.3277 237.572 62.3015 239.092 63.6177C240.611 64.9339 241.83 66.5614 242.666 68.39C243.501 70.2186 243.934 72.2056 243.934 74.216H243.933Z" fill="#A7E59C"/>
<path d="M230.247 88.6574C227.324 88.6576 224.467 87.7912 222.037 86.1675C219.607 84.544 217.713 82.2362 216.594 79.5361C215.476 76.836 215.183 73.8648 215.753 70.9983C216.323 68.1319 217.731 65.4989 219.797 63.4322C221.864 61.3656 224.497 59.9583 227.363 59.3881C230.23 58.8181 233.201 59.1107 235.901 60.2294C238.601 61.3479 240.909 63.242 242.533 65.6723C244.156 68.1024 245.023 70.9594 245.022 73.8821C245.018 77.7993 243.459 81.5547 240.69 84.3247C237.92 87.0945 234.164 88.6527 230.247 88.6574ZM230.247 60.6172C227.623 60.617 225.059 61.3947 222.877 62.8521C220.696 64.3096 218.995 66.3812 217.991 68.8049C216.987 71.2287 216.724 73.896 217.236 76.4692C217.747 79.0424 219.011 81.406 220.866 83.2613C222.721 85.1165 225.084 86.38 227.657 86.892C230.231 87.4039 232.898 87.1413 235.322 86.1373C237.746 85.1334 239.817 83.4332 241.275 81.2517C242.733 79.0704 243.511 76.5057 243.511 73.8821C243.507 70.3653 242.108 66.9937 239.622 64.5069C237.135 62.0201 233.764 60.6213 230.247 60.6172Z" fill="#426572"/>
<path d="M287.211 67.9701H284.376V69.4818H287.211V67.9701Z" fill="#426572"/>
<path d="M282.548 67.9701H274.907V69.4818H282.548V67.9701Z" fill="#426572"/>
<path d="M235.758 81.546C231.644 82.1293 226.572 80.6201 226.572 80.6201L224.072 81.1177C223.962 81.1389 223.849 81.135 223.742 81.1064C223.634 81.0778 223.534 81.0251 223.449 80.9524C223.364 80.8799 223.297 80.789 223.252 80.6868C223.207 80.5845 223.186 80.4735 223.19 80.3619C223.241 78.5736 223.195 76.7839 223.053 75.0005C223.04 74.8716 223.062 74.7418 223.115 74.6237C223.168 74.5058 223.252 74.4039 223.357 74.3283C223.462 74.2526 223.585 74.2059 223.714 74.1928C223.843 74.1797 223.973 74.2006 224.091 74.2535C224.654 74.5315 225.272 74.6829 225.9 74.6969C227.418 74.6843 228.743 73.5203 229.421 72.1384C230.098 70.7565 230.252 69.8608 230.394 68.324C230.456 67.6526 230.554 66.9081 231.065 66.4772C231.946 65.7302 233.398 66.6032 233.684 67.7307C233.97 68.8581 233.509 69.3595 233.119 70.4554C232.867 71.171 232.923 71.2113 232.719 71.9482C232.693 72.008 232.68 72.0728 232.681 72.138C232.683 72.2032 232.698 72.2674 232.726 72.3261C232.763 72.3671 232.807 72.4001 232.857 72.4231C232.907 72.446 232.961 72.4585 233.016 72.4596C233.84 72.5655 234.38 72.8728 235.205 72.9635C235.585 73.0046 235.945 73.1505 236.246 73.3848C236.547 73.6191 236.777 73.9325 236.91 74.29V80.474C236.911 80.6215 236.882 80.7678 236.824 80.9033C236.765 81.039 236.68 81.1609 236.572 81.2617C236.464 81.3625 236.337 81.4398 236.198 81.4888C236.058 81.5377 235.911 81.5572 235.763 81.546H235.758Z" fill="#85D175"/>
<path d="M173.353 63.1908C167.94 79.9287 156.843 94.9473 140.67 102.178C138.566 103.117 136.41 103.935 134.213 104.626C122.591 108.29 109.634 107.964 98.4598 103.094C93.7173 101.024 89.3396 98.1849 84.5822 96.1501C79.8247 94.1153 74.4544 92.9094 69.4788 94.3225C65.1947 95.5392 61.6902 98.5365 58.1436 101.23C49.7829 107.581 39.5954 112.806 29.1951 111.365C24.4096 110.703 19.605 108.399 17.1674 104.235C11.7793 95.0283 20.3147 83.249 17.8739 72.8712C16.3119 66.2293 10.6071 61.5085 6.9046 55.7766C0.568388 45.9724 0.500006 32.4831 6.73716 22.617C12.9743 12.7508 25.1853 7.02047 36.7586 8.53387C50.8714 10.3804 62.0902 21.6105 75.9042 25.0352C84.5432 27.1746 93.721 25.8803 101.641 21.9859C114.436 15.6923 131.965 6.15682 146.792 6.72333C154.676 7.02499 162.563 10.0765 168.071 15.7314C175.033 22.8694 177.59 33.4125 177.05 43.3672C176.675 50.1064 175.432 56.7692 173.353 63.1908Z" fill="url(#paint2_linear_116_265)"/>
<path d="M178.287 75.9158C177.996 75.9317 177.704 75.9129 177.418 75.8596C176.512 75.6898 175.705 75.1807 175.162 74.4362C174.619 73.6916 174.381 72.7678 174.496 71.8534C174.61 70.9391 175.07 70.1029 175.78 69.5158C176.49 68.9288 177.399 68.635 178.318 68.6945C179.238 68.7541 180.1 69.1624 180.728 69.8362C181.358 70.5098 181.705 71.3983 181.702 72.3198C181.698 73.2414 181.342 74.1268 180.707 74.795C180.073 75.4634 179.207 75.8642 178.287 75.9158ZM177.975 70.3215C177.496 70.3501 177.045 70.5526 176.705 70.891C176.365 71.2294 176.161 71.6803 176.13 72.1588C176.101 72.6371 176.246 73.1102 176.541 73.4887C176.834 73.8673 177.257 74.1251 177.728 74.2138C178 74.2635 178.281 74.2549 178.551 74.1884C178.819 74.1222 179.071 73.9996 179.289 73.8288C179.507 73.6581 179.688 73.443 179.817 73.1978C179.945 72.9526 180.022 72.6828 180.039 72.4063C180.057 72.1296 180.015 71.8525 179.918 71.5929C179.821 71.3334 179.67 71.0974 179.475 70.9005C179.279 70.7036 179.046 70.5502 178.786 70.4504C178.528 70.3506 178.252 70.3066 177.975 70.3215Z" fill="#E7F6FF"/>
<path d="M175.205 79.9297C175.362 79.0716 174.796 78.2476 173.936 78.0897C173.078 77.9316 172.255 78.4992 172.096 79.3573C171.939 80.2154 172.506 81.0392 173.364 81.1974C174.223 81.3553 175.046 80.7878 175.205 79.9297Z" fill="#E7F6FF"/>
<path d="M12.1326 84.8424C11.1751 84.8749 10.2435 84.5284 9.53994 83.8781C8.83638 83.2279 8.41769 82.3264 8.37478 81.3694C8.33185 80.4123 8.66816 79.4769 9.31068 78.7663C9.95319 78.0556 10.8501 77.6272 11.8066 77.5738C12.7632 77.5205 13.7021 77.8464 14.4197 78.4812C15.1373 79.1159 15.5756 80.0081 15.6394 80.964C15.7032 81.9198 15.3875 82.8623 14.7606 83.5868C14.1338 84.3113 13.2465 84.7593 12.2913 84.8335L12.1326 84.8424ZM11.8205 79.2495L11.7384 79.2541C11.2225 79.2942 10.7432 79.536 10.4046 79.9272C10.066 80.3185 9.89539 80.8274 9.92982 81.3438C9.96423 81.86 10.2009 82.3418 10.5885 82.6847C10.976 83.0275 11.4831 83.2036 11.9997 83.1748C12.5164 83.146 13.0008 82.9145 13.3478 82.5307C13.6948 82.1468 13.8763 81.6417 13.8531 81.1249C13.8299 80.6079 13.6037 80.1211 13.2237 79.7699C12.8436 79.4188 12.3404 79.2318 11.8233 79.2493L11.8205 79.2495Z" fill="#E7F6FF"/>
<path d="M9.88301 91.0828C10.7513 90.9966 11.3854 90.223 11.2993 89.3546C11.2132 88.4864 10.4395 87.8522 9.57114 87.9383C8.70283 88.0245 8.06873 88.7981 8.15484 89.6665C8.24096 90.5348 9.01469 91.1689 9.88301 91.0828Z" fill="#E7F6FF"/>
<path d="M99.8974 21.0328C99.0306 21.0818 98.1749 20.8191 97.4851 20.292C96.7952 19.7648 96.317 19.0081 96.1368 18.1588C95.9567 17.3096 96.0864 16.4238 96.5027 15.662C96.919 14.9001 97.5943 14.3125 98.4064 14.0054C99.2183 13.6984 100.113 13.6922 100.93 13.9879C101.746 14.2837 102.429 14.8619 102.856 15.6179C103.283 16.3739 103.425 17.2577 103.257 18.1094C103.088 18.9611 102.62 19.7244 101.938 20.2611C101.353 20.7211 100.641 20.9905 99.8974 21.0328ZM99.5742 15.4418C99.067 15.4696 98.5902 15.692 98.2428 16.0628C97.8957 16.4336 97.7049 16.924 97.7104 17.432C97.7159 17.9399 97.9172 18.4261 98.2724 18.7894C98.6275 19.1525 99.1091 19.3646 99.6169 19.3814C100.124 19.3982 100.619 19.2185 100.998 18.8795C101.376 18.5406 101.609 18.0688 101.648 17.5623C101.687 17.0558 101.529 16.5538 101.207 16.1609C100.885 15.768 100.424 15.5145 99.9199 15.4533C99.8053 15.4393 99.6895 15.4355 99.5742 15.4418Z" fill="#E7F6FF"/>
<path d="M92.4799 21.2478C93.1653 20.7077 93.2832 19.7144 92.7431 19.0289C92.203 18.3436 91.2097 18.2257 90.5243 18.7657C89.8388 19.3058 89.7211 20.2991 90.261 20.9846C90.8011 21.67 91.7945 21.7878 92.4799 21.2478Z" fill="#E7F6FF"/>
<path d="M181.267 35.263C181.182 33.7322 180.491 32.2978 179.349 31.2757C178.205 30.2534 176.704 29.7272 175.172 29.8126C175.044 29.8198 174.918 29.8269 174.793 29.8464C174.794 29.7206 174.791 29.5937 174.784 29.4656C174.738 28.6452 174.518 27.844 174.138 27.1155C173.758 26.3868 173.228 25.7475 172.581 25.2404C171.934 24.7332 171.187 24.3695 170.388 24.1739C169.591 23.978 168.76 23.9547 167.953 24.1052C167.144 24.2559 166.379 24.5768 165.704 25.0469C165.03 25.517 164.464 26.1254 164.044 26.8314C163.624 27.5375 163.359 28.3251 163.266 29.1416C163.175 29.9581 163.257 30.7849 163.51 31.5668C162.785 31.0999 161.964 30.8013 161.107 30.6931C160.25 30.5848 159.381 30.6698 158.562 30.9416C157.742 31.2134 156.995 31.6651 156.372 32.2638C155.75 32.8625 155.272 33.5927 154.967 34.401C154.665 35.2094 154.547 36.0752 154.623 36.9351C154.699 37.7949 154.966 38.6268 155.405 39.37C155.843 40.1132 156.443 40.7486 157.16 41.2295C157.877 41.7106 158.692 42.025 159.546 42.1497C159.943 43.0449 160.559 43.825 161.339 44.4168C162.118 45.0086 163.036 45.3927 164.003 45.5332C164.972 45.6737 165.962 45.566 166.877 45.2202C167.792 44.8743 168.605 44.3016 169.239 43.5557C169.958 44.0374 170.774 44.3519 171.63 44.4759C172.486 44.6001 173.358 44.5308 174.183 44.273C175.01 44.0152 175.766 43.5755 176.399 42.9865C177.032 42.3974 177.524 41.6739 177.841 40.869C178.914 40.3926 179.815 39.6012 180.428 38.5998C181.04 37.5985 181.332 36.4348 181.267 35.263Z" fill="white"/>
<path d="M28.097 29.8915C28.0554 29.1331 27.8648 28.3902 27.536 27.7055C27.2072 27.0208 26.7467 26.4075 26.1807 25.9008C25.6149 25.3941 24.9547 25.0038 24.2379 24.7525C23.5212 24.501 22.7618 24.3933 22.0034 24.4354C21.8753 24.4426 21.7486 24.4497 21.624 24.4692C21.6254 24.3434 21.6225 24.2165 21.6153 24.0884C21.5694 23.268 21.3492 22.4668 20.9691 21.7382C20.5892 21.0096 20.0583 20.3704 19.4118 19.8631C18.7654 19.3559 18.0181 18.9923 17.22 18.7966C16.422 18.6008 15.5913 18.5775 14.7835 18.728C13.9758 18.8786 13.2093 19.1996 12.5354 19.6697C11.8614 20.1398 11.2954 20.7481 10.8751 21.4542C10.4547 22.1602 10.1897 22.9478 10.0977 23.7643C10.0057 24.5809 10.0888 25.4077 10.3415 26.1896C9.61563 25.7225 8.79437 25.4239 7.93804 25.3159C7.08169 25.2076 6.21199 25.2926 5.39274 25.5643C4.57351 25.8361 3.82552 26.2879 3.20369 26.8866C2.58186 27.4853 2.10195 28.2155 1.79919 29.0238C1.49643 29.8322 1.3785 30.698 1.45406 31.5578C1.52961 32.4176 1.79673 33.2496 2.23581 33.9927C2.67491 34.736 3.27481 35.3713 3.99151 35.8523C4.70821 36.3332 5.52353 36.6478 6.37761 36.7725C6.77372 37.6669 7.39028 38.4462 8.16957 39.0373C8.94886 39.6286 9.86542 40.0124 10.8334 40.1529C11.8015 40.2934 12.7893 40.1859 13.7045 39.8407C14.6197 39.4955 15.4324 38.9236 16.0664 38.1788C16.7845 38.6605 17.6015 38.9749 18.4572 39.099C19.3128 39.2232 20.1855 39.1538 21.0108 38.8959C21.8361 38.6381 22.5931 38.1985 23.226 37.6094C23.8589 37.0203 24.3516 36.2969 24.6679 35.4921C25.74 35.0165 26.6421 34.226 27.2546 33.2258C27.867 32.2256 28.1608 31.0627 28.097 29.8915Z" fill="white"/>
<path d="M138.876 106.102L55.8249 110.737L55.7239 108.927L138.775 104.292C139.015 104.279 139.251 104.362 139.43 104.522C139.609 104.682 139.717 104.907 139.731 105.147C139.744 105.387 139.662 105.622 139.501 105.802C139.341 105.981 139.116 106.089 138.876 106.102Z" fill="#426572"/>
<path d="M52.1104 110.944L47.0326 111.228C46.7926 111.241 46.5571 111.158 46.3779 110.998C46.1987 110.838 46.0905 110.613 46.0771 110.373C46.0637 110.133 46.1462 109.897 46.3065 109.718C46.4668 109.539 46.6916 109.431 46.9316 109.418L52.0094 109.134C52.2494 109.121 52.4849 109.203 52.6641 109.363C52.8433 109.524 52.9515 109.749 52.9649 109.989C52.9783 110.229 52.8958 110.464 52.7355 110.643C52.5752 110.823 52.3504 110.931 52.1104 110.944Z" fill="#426572"/>
<path d="M43.7369 111.412L42.119 111.502C41.879 111.515 41.6435 111.433 41.4643 111.272C41.2851 111.112 41.1769 110.887 41.1635 110.647C41.1501 110.407 41.2327 110.172 41.3929 109.992C41.5532 109.813 41.778 109.705 42.018 109.692L43.6359 109.602C43.8759 109.588 44.1114 109.671 44.2906 109.831C44.4698 109.991 44.578 110.216 44.5914 110.456C44.6048 110.696 44.5223 110.932 44.362 111.111C44.2018 111.29 43.9769 111.398 43.7369 111.412Z" fill="#426572"/>
<path d="M167.998 104.477L142.471 105.902L142.37 104.092L167.897 102.667C168.137 102.654 168.373 102.737 168.552 102.897C168.732 103.057 168.839 103.282 168.853 103.522C168.866 103.762 168.784 103.997 168.624 104.177C168.463 104.356 168.238 104.464 167.998 104.477Z" fill="#426572"/>
<path d="M37.4909 111.76L11.9628 113.185L11.8618 111.375L37.3899 109.95C37.6299 109.937 37.8654 110.019 38.0446 110.179C38.2238 110.34 38.332 110.565 38.3454 110.805C38.3588 111.045 38.2763 111.28 38.116 111.459C37.9558 111.638 37.7309 111.747 37.4909 111.76Z" fill="#426572"/>
<path d="M100.743 28.8851L105.112 107.178L20.2981 111.911L15.9291 33.618C15.907 33.194 16.0534 32.7786 16.3363 32.4621C16.6193 32.1458 17.0159 31.9541 17.4396 31.9289L99.0528 27.3747C99.149 27.3693 99.2456 27.3729 99.3411 27.3851C99.713 27.4324 100.057 27.6083 100.313 27.8822C100.569 28.156 100.721 28.5108 100.743 28.8851Z" fill="white"/>
<path d="M17.6053 39.678L101.352 35.0047L101.038 29.3798L99.3188 27.3598L25.9759 31.4525L17.441 31.9288L16.2249 34.1126L16.5388 39.7375L17.6053 39.678Z" fill="#E2F2FF"/>
<path d="M106.26 107.952L19.7768 112.778L15.3612 33.6497C15.3259 33.004 15.5482 32.3708 15.9793 31.8888C16.4102 31.4068 17.0149 31.1154 17.6605 31.0787L99.2723 26.5245C99.918 26.4892 100.551 26.7115 101.033 27.1426C101.515 27.5736 101.807 28.1782 101.843 28.8237L106.26 107.952ZM21.3543 111.014L104.496 106.374L100.174 28.9169C100.162 28.7143 100.071 28.5246 99.9195 28.3893C99.7683 28.2541 99.5695 28.1843 99.3669 28.1952L17.7537 32.7494C17.5512 32.7611 17.3614 32.8526 17.2262 33.0039C17.0909 33.1551 17.0211 33.3539 17.032 33.5565L21.3543 111.014Z" fill="#426572"/>
<path d="M21.2698 36.9652C21.8589 36.9324 22.3096 36.4282 22.2768 35.8392C22.2439 35.2501 21.7398 34.7993 21.1507 34.8322C20.5618 34.8651 20.1109 35.3691 20.1437 35.9582C20.1766 36.5472 20.6808 36.9981 21.2698 36.9652Z" fill="#CADCE8"/>
<path d="M24.4695 36.7867C25.0586 36.7538 25.5093 36.2496 25.4765 35.6607C25.4436 35.0716 24.9395 34.6208 24.3504 34.6537C23.7615 34.6865 23.3106 35.1906 23.3434 35.7797C23.3763 36.3687 23.8805 36.8196 24.4695 36.7867Z" fill="#CADCE8"/>
<path d="M27.6702 36.6081C28.2592 36.5752 28.71 36.071 28.6772 35.482C28.6443 34.8929 28.1402 34.4422 27.5511 34.475C26.9622 34.5079 26.5113 35.012 26.5441 35.6011C26.577 36.19 27.0812 36.6409 27.6702 36.6081Z" fill="#CADCE8"/>
<path d="M96.9231 30.6028L32.0566 34.2225C31.5568 34.2504 31.1742 34.6782 31.2021 35.178L31.2201 35.501C31.248 36.0009 31.6758 36.3834 32.1756 36.3555L97.0421 32.7358C97.542 32.7079 97.9245 32.2801 97.8966 31.7803L97.8786 31.4573C97.8507 30.9574 97.4229 30.5749 96.9231 30.6028Z" fill="#CADCE8"/>
<path d="M156.302 10.5346L161.519 104.03L76.7092 108.763L71.4919 15.2672C71.4697 14.8433 71.616 14.4278 71.899 14.1114C72.1819 13.795 72.5786 13.6033 73.0024 13.5782L154.614 9.02404C154.71 9.01871 154.807 9.0222 154.902 9.03449C155.274 9.08241 155.617 9.25848 155.873 9.53236C156.128 9.80623 156.28 10.1607 156.302 10.5346Z" fill="white"/>
<path d="M73.1653 21.3275L156.912 16.6543L156.598 11.0293L154.879 9.00927L81.536 13.102L74.3349 13.5038L71.7849 15.7621L72.0988 21.3871L73.1653 21.3275Z" fill="#E2F2FF"/>
<path d="M162.662 104.804L76.185 109.63L70.921 15.2991C70.8857 14.6535 71.1081 14.0202 71.539 13.5382C71.97 13.0562 72.5747 12.7648 73.2203 12.7281L154.832 8.1739C155.477 8.14014 156.109 8.36308 156.59 8.79405C157.071 9.225 157.36 9.8289 157.398 10.4735L162.662 104.804ZM77.7555 107.866L160.898 103.227L155.727 10.5667C155.716 10.3641 155.624 10.1744 155.473 10.0391C155.321 9.90386 155.123 9.83402 154.92 9.84498L73.3135 14.3988C73.111 14.4105 72.9213 14.502 72.786 14.6533C72.6507 14.8045 72.5809 15.0032 72.5918 15.2059L77.7555 107.866Z" fill="#426572"/>
<path d="M76.8296 18.6151C77.4185 18.5823 77.8695 18.0781 77.8366 17.4891C77.8037 16.9001 77.2995 16.4492 76.7106 16.4821C76.1215 16.515 75.6707 17.0191 75.7036 17.6081C75.7364 18.1972 76.2405 18.648 76.8296 18.6151Z" fill="#CADCE8"/>
<path d="M80.029 18.4366C80.6181 18.4037 81.0689 17.8996 81.036 17.3106C81.0032 16.7216 80.4991 16.2707 79.91 16.3036C79.3211 16.3364 78.8702 16.8406 78.903 17.4296C78.9359 18.0186 79.4401 18.4695 80.029 18.4366Z" fill="#CADCE8"/>
<path d="M83.23 18.258C83.8189 18.2251 84.2698 17.7209 84.237 17.1319C84.2041 16.5429 83.6999 16.0921 83.1109 16.1249C82.5219 16.1578 82.0711 16.6619 82.1039 17.251C82.1368 17.84 82.6409 18.2908 83.23 18.258Z" fill="#CADCE8"/>
<path d="M152.483 12.2538L87.6164 15.8735C87.1166 15.9014 86.734 16.3292 86.7619 16.829L86.78 17.152C86.8078 17.6518 87.2356 18.0344 87.7355 18.0065L152.602 14.3868C153.102 14.3589 153.484 13.9311 153.456 13.4313L153.438 13.1083C153.41 12.6085 152.983 12.2259 152.483 12.2538Z" fill="#CADCE8"/>
<path d="M100.313 29.8604L82.8745 30.8335L83.9833 50.7032L101.422 49.7301L100.313 29.8604Z" fill="#E8837E"/>
<path d="M143.308 27.4612L101.959 29.7686L103.068 49.6383L144.416 47.3309L143.308 27.4612Z" fill="#E8837E"/>
<path d="M144.539 49.5304L125.016 50.6198L126.125 70.4895L145.648 69.4001L144.539 49.5304Z" fill="#DDE4ED"/>
<path d="M123.371 50.7117L84.3259 52.8905L85.4347 72.7602L124.479 70.5814L123.371 50.7117Z" fill="#DDE4ED"/>
<path d="M145.881 71.594L85.5574 74.9602L86.6662 94.8299L146.99 91.4637L145.881 71.594Z" fill="#DDE4ED"/>
<path d="M40.7503 81.8459L27.1738 82.6035L27.2515 83.9958L40.828 83.2382L40.7503 81.8459Z" fill="#DDE4ED"/>
<path d="M40.9588 85.58L27.3823 86.3376L27.46 87.73L41.0365 86.9724L40.9588 85.58Z" fill="#DDE4ED"/>
<path d="M41.167 89.3133L27.5906 90.0709L27.6683 91.4632L41.2447 90.7056L41.167 89.3133Z" fill="#DDE4ED"/>
<path d="M41.3755 93.0475L27.7991 93.8051L27.8768 95.1974L41.4532 94.4398L41.3755 93.0475Z" fill="#DDE4ED"/>
<path d="M41.5838 96.7811L28.0073 97.5387L28.085 98.931L41.6615 98.1734L41.5838 96.7811Z" fill="#DDE4ED"/>
<path d="M41.7923 100.515L28.2158 101.273L28.2935 102.665L41.87 101.908L41.7923 100.515Z" fill="#DDE4ED"/>
<path d="M33.6516 72.2141L36.0791 67.4614L40.4327 70.7184L40.6105 73.9055L29.071 74.5494L31.6719 70.5007L33.6516 72.2141Z" fill="#DDE4ED"/>
<path d="M45.6851 69.3625L41.6599 69.5872L41.3865 64.689L42.1483 63.8728L45.5521 66.9803L45.6851 69.3625Z" fill="#DDE4ED"/>
<path d="M30.7162 69.7959C31.1512 69.7713 31.569 69.6182 31.917 69.3562C32.2649 69.0941 32.5273 68.7347 32.6709 68.3234C32.8145 67.9121 32.8329 67.4675 32.7238 67.0458C32.6146 66.6241 32.383 66.2442 32.0578 65.9542C31.7327 65.6643 31.329 65.4773 30.8976 65.4169C30.4662 65.3564 30.0265 65.4253 29.6343 65.6147C29.2421 65.8042 28.9149 66.1059 28.6941 66.4813C28.4733 66.8568 28.3688 67.2894 28.3939 67.7243C28.4293 68.3061 28.6933 68.8504 29.1283 69.2384C29.5633 69.6265 30.1341 69.8268 30.7162 69.7959Z" fill="#DDE4ED"/>
<path opacity="0.2" d="M127.31 47.129L130.522 104.69L45.7097 109.423L42.4976 51.8617C42.4685 51.4317 42.6106 51.0074 42.8931 50.6819C43.1756 50.3562 43.5755 50.1557 44.0054 50.124L125.617 45.5698C126.048 45.553 126.468 45.7078 126.786 45.9999C127.103 46.2921 127.292 46.698 127.31 47.129Z" fill="#606060"/>
<path d="M124.396 50.0387L127.515 105.928L42.7019 110.66L39.5832 54.7715C39.561 54.3476 39.7073 53.9321 39.9903 53.6156C40.2732 53.2993 40.6699 53.1076 41.0937 53.0824L122.705 48.5283C122.802 48.5229 122.898 48.5264 122.994 48.5387C123.366 48.5861 123.709 48.7619 123.966 49.0357C124.221 49.3097 124.374 49.6645 124.396 50.0387Z" fill="white"/>
<path d="M41.2591 60.8301L125.004 56.1569L124.69 50.532L122.973 48.5119L49.6283 52.6047L40.4279 53.1181L39.8787 55.2647L40.1926 60.8896L41.2591 60.8301Z" fill="#E2F2FF"/>
<path d="M44.9072 57.8518C45.4962 57.8189 45.9471 57.3147 45.9142 56.7257C45.8813 56.1367 45.3771 55.6859 44.7882 55.7187C44.1991 55.7516 43.7483 56.2557 43.7812 56.8448C43.8141 57.4337 44.3181 57.8846 44.9072 57.8518Z" fill="#CADCE8"/>
<path d="M48.1081 57.6732C48.6971 57.6403 49.148 57.1361 49.1151 56.5472C49.0823 55.9581 48.5781 55.5073 47.9891 55.5402C47.4 55.573 46.9492 56.0771 46.9821 56.6662C47.015 57.2551 47.5191 57.7061 48.1081 57.6732Z" fill="#CADCE8"/>
<path d="M51.3093 57.4945C51.8983 57.4617 52.3492 56.9575 52.3163 56.3685C52.2834 55.7794 51.7792 55.3286 51.1903 55.3615C50.6012 55.3944 50.1504 55.8984 50.1833 56.4875C50.2162 57.0765 50.7202 57.5274 51.3093 57.4945Z" fill="#CADCE8"/>
<path d="M120.562 51.4904L55.6958 55.1101C55.1959 55.138 54.8134 55.5657 54.8413 56.0656L54.8593 56.3886C54.8872 56.8884 55.315 57.271 55.8148 57.2431L120.681 53.6234C121.181 53.5955 121.564 53.1677 121.536 52.6679L121.518 52.3449C121.49 51.845 121.062 51.4625 120.562 51.4904Z" fill="#CADCE8"/>
<path d="M66.1993 95.1702C68.2555 95.0554 69.8294 93.2955 69.7146 91.2394C69.5999 89.1832 67.84 87.6093 65.7838 87.7241C63.7277 87.8388 62.1538 89.5987 62.2685 91.6549C62.3833 93.711 64.1432 95.2849 66.1993 95.1702Z" fill="#DDE4ED"/>
<path d="M84.4874 94.1496C86.5436 94.0349 88.1175 92.275 88.0027 90.2188C87.888 88.1627 86.1281 86.5888 84.0719 86.7036C82.0158 86.8183 80.4419 88.5782 80.5566 90.6344C80.6714 92.6905 82.4313 94.2644 84.4874 94.1496Z" fill="#DDE4ED"/>
<path d="M102.775 93.1291C104.831 93.0144 106.405 91.2545 106.291 89.1983C106.176 87.1422 104.416 85.5683 102.36 85.6831C100.304 85.7978 98.7297 87.5577 98.8445 89.6139C98.9592 91.67 100.719 93.2439 102.775 93.1291Z" fill="#DDE4ED"/>
<path d="M112.763 63.9449L53.0284 67.2782C52.1058 67.3297 51.3994 68.1195 51.4509 69.0422L52.217 82.7704C52.2685 83.6933 53.0583 84.3995 53.981 84.348L113.715 81.0146C114.638 80.9631 115.344 80.1735 115.293 79.2506L114.527 65.5224C114.475 64.5997 113.686 63.8934 112.763 63.9449Z" fill="#E6A851"/>
<path d="M83.8528 98.698L53.7148 100.38L53.8081 102.051L83.9461 100.369L83.8528 98.698Z" fill="#E8EDF7"/>
<path d="M102.309 101.011L53.7686 103.72L53.8618 105.391L102.402 102.682L102.309 101.011Z" fill="#E8EDF7"/>
<path d="M116.925 96.8525L88.1204 98.4599L88.2136 100.131L117.018 98.5233L116.925 96.8525Z" fill="#E8EDF7"/>
<path opacity="0.3" d="M44.8706 110.405L43.6175 110.475L40.8813 61.4421L124.719 56.7637L124.789 58.0168L42.2044 62.6252L44.8706 110.405Z" fill="#C1CEDE"/>
<path d="M124.705 55.3355L40.2407 60.0489L40.334 61.7197L124.799 57.0063L124.705 55.3355Z" fill="#426572"/>
<path d="M128.663 106.701L42.1804 111.527L39.015 54.8032C38.9797 54.1575 39.2021 53.5243 39.633 53.0423C40.064 52.5603 40.6687 52.269 41.3143 52.2322L122.926 47.678C123.572 47.6428 124.205 47.865 124.687 48.2961C125.169 48.7271 125.46 49.3317 125.497 49.9773L128.663 106.701ZM43.7566 109.763L126.899 105.124L123.826 50.0705C123.815 49.8679 123.723 49.6782 123.572 49.5429C123.421 49.4077 123.222 49.3379 123.019 49.3488L41.4075 53.9029C41.205 53.9147 41.0153 54.0061 40.88 54.1574C40.7447 54.3086 40.6749 54.5074 40.6858 54.71L43.7566 109.763Z" fill="#426572"/>
<path d="M149.432 94.5148L133.964 95.378L134.026 96.4918L149.494 95.6287L149.432 94.5148Z" fill="#DDE4ED"/>
<defs>
<linearGradient id="paint0_linear_116_265" x1="48.6392" y1="182.112" x2="251.512" y2="206.967" gradientUnits="userSpaceOnUse">
<stop stop-color="#C5E9FA"/>
<stop offset="0.0208333" stop-color="#E6A851"/>
<stop offset="1" stop-color="#FFC805"/>
</linearGradient>
<linearGradient id="paint1_linear_116_265" x1="200.166" y1="85.7598" x2="358.044" y2="85.7598" gradientUnits="userSpaceOnUse">
<stop stop-color="#E6A851"/>
<stop offset="1" stop-color="#FFC805"/>
</linearGradient>
<linearGradient id="paint2_linear_116_265" x1="3.32019" y1="61.7476" x2="177.816" y2="52.0102" gradientUnits="userSpaceOnUse">
<stop stop-color="#E6A851"/>
<stop offset="1" stop-color="#FFC805"/>
</linearGradient>
</defs>
</svg>
