<svg width="202" height="118" viewBox="0 0 202 118" fill="none" xmlns="http://www.w3.org/2000/svg">
<path d="M190.901 71.4196C183.779 89.8613 170.388 106.018 151.788 113.119C149.369 114.041 146.899 114.823 144.39 115.461C131.119 118.845 116.602 117.668 104.369 111.503C99.1771 108.884 94.4429 105.424 89.2323 102.843C84.0217 100.262 78.0714 98.5728 72.4001 99.8468C67.517 100.944 63.3971 104.087 59.249 106.888C49.4703 113.49 37.7123 118.715 26.133 116.447C20.8048 115.405 15.5582 112.518 13.0837 107.693C7.61453 97.0261 17.9292 84.3435 15.8403 72.5464C14.5035 64.9961 8.39808 59.342 4.60256 52.6787C-1.89307 41.2811 -1.12519 26.1414 6.49092 15.4616C14.107 4.78181 28.1671 -0.883265 41.058 1.53947C56.7776 4.49503 68.6625 17.7981 83.9481 22.5057C93.5074 25.4471 103.886 24.5696 113.016 20.6957C127.767 14.4352 148.033 4.83352 164.633 6.39749C173.461 7.22962 182.119 11.1474 187.946 17.8373C195.311 26.2824 197.519 38.2723 196.29 49.4081C195.447 56.9463 193.636 64.3445 190.901 71.4196Z" fill="url(#paint0_linear_34_1287)"/>
<path d="M195.64 86.0065C195.313 86.006 194.987 85.9666 194.669 85.8889C193.663 85.6416 192.79 85.02 192.227 84.1505C191.664 83.2811 191.454 82.2296 191.641 81.2108C191.826 80.192 192.395 79.2826 193.228 78.6683C194.062 78.0542 195.1 77.7814 196.128 77.9058C197.156 78.0302 198.097 78.5423 198.76 79.3377C199.425 80.133 199.759 81.1516 199.697 82.1854C199.635 83.2192 199.18 84.1903 198.426 84.9004C197.673 85.6106 196.676 86.0061 195.64 86.0065ZM195.64 79.7098C195.101 79.7119 194.582 79.9109 194.18 80.2693C193.777 80.6277 193.52 81.1209 193.456 81.6559C193.393 82.1907 193.526 82.7306 193.833 83.1738C194.139 83.6169 194.596 83.9327 195.12 84.0617C195.422 84.1346 195.737 84.1424 196.045 84.0847C196.35 84.0272 196.64 83.9054 196.895 83.7274C197.151 83.5496 197.367 83.3195 197.527 83.0525C197.687 82.7854 197.79 82.4875 197.826 82.1783C197.864 81.869 197.834 81.5554 197.742 81.2581C197.649 80.9609 197.494 80.6866 197.287 80.4534C197.08 80.2202 196.828 80.0334 196.543 79.9053C196.259 79.7771 195.952 79.7105 195.64 79.7098Z" fill="#E7F6FF"/>
<path d="M191.931 90.3173C192.161 89.3644 191.577 88.4043 190.622 88.1734C189.67 87.9422 188.71 88.5275 188.479 89.4805C188.248 90.4334 188.833 91.3933 189.786 91.6244C190.74 91.8554 191.699 91.2703 191.931 90.3173Z" fill="#E7F6FF"/>
<path d="M8.64889 85.6192C7.57255 85.5956 6.5489 85.1486 5.80019 84.3749C5.05147 83.6012 4.63815 82.5635 4.6499 81.487C4.66167 80.4104 5.09758 79.3819 5.86301 78.6249C6.62845 77.8676 7.6616 77.4431 8.73822 77.4431C9.81485 77.4431 10.848 77.8676 11.6134 78.6249C12.3789 79.3819 12.8148 80.4104 12.8266 81.487C12.8383 82.5635 12.425 83.6012 11.6763 84.3749C10.9276 85.1486 9.90391 85.5956 8.82755 85.6192H8.64889ZM8.64889 79.3241H8.55644C7.9751 79.3368 7.4222 79.5781 7.01778 79.9959C6.61334 80.4137 6.39003 80.9741 6.39633 81.5557C6.40261 82.1371 6.63801 82.6924 7.05139 83.1015C7.46478 83.5103 8.02277 83.7397 8.60423 83.7397C9.18571 83.7397 9.7437 83.5103 10.1571 83.1015C10.5705 82.6924 10.8059 82.1371 10.8122 81.5557C10.8185 80.9741 10.5951 80.4137 10.1907 79.9959C9.78628 79.5781 9.23338 79.3368 8.65203 79.3241H8.64889Z" fill="#E7F6FF"/>
<path d="M5.7339 92.4802C6.71359 92.4379 7.47353 91.6095 7.43126 90.6297C7.389 89.6501 6.56055 88.8901 5.58088 88.9324C4.60119 88.9747 3.84125 89.8031 3.88352 90.7828C3.92577 91.7624 4.75423 92.5225 5.7339 92.4802Z" fill="#E7F6FF"/>
<path d="M111.12 19.5171C110.144 19.5179 109.201 19.1695 108.46 18.5348C107.719 17.9001 107.229 17.0212 107.08 16.0569C106.931 15.0927 107.133 14.1071 107.647 13.2783C108.162 12.4495 108.957 11.8325 109.887 11.5387C110.817 11.245 111.822 11.2941 112.719 11.6771C113.617 12.0601 114.347 12.7517 114.779 13.6266C115.21 14.5016 115.315 15.5022 115.072 16.4473C114.83 17.3924 114.257 18.2195 113.458 18.779C112.773 19.2585 111.957 19.5161 111.12 19.5171ZM111.107 13.2236C110.537 13.223 109.988 13.4427 109.575 13.837C109.162 14.2312 108.917 14.7696 108.892 15.3399C108.866 15.9102 109.061 16.4683 109.437 16.8981C109.813 17.3278 110.34 17.596 110.909 17.6466C111.477 17.6972 112.043 17.5266 112.489 17.1699C112.935 16.8134 113.226 16.2985 113.302 15.7327C113.377 15.1669 113.231 14.5937 112.895 14.1327C112.558 13.6717 112.056 13.3583 111.495 13.258C111.367 13.2352 111.237 13.2237 111.107 13.2236Z" fill="#E7F6FF"/>
<path d="M102.784 19.2939C103.587 18.7309 103.781 17.6237 103.218 16.8207C102.655 16.0179 101.548 15.8235 100.745 16.3865C99.9421 16.9495 99.7478 18.0567 100.311 18.8597C100.874 19.6625 101.981 19.857 102.784 19.2939Z" fill="#E7F6FF"/>
<path d="M201.529 40.5789C201.529 38.8559 200.845 37.2032 199.627 35.9848C198.408 34.7662 196.756 34.0817 195.032 34.0817C194.888 34.0817 194.745 34.0817 194.604 34.0958C194.614 33.9548 194.618 33.8122 194.618 33.668C194.618 32.7446 194.421 31.8318 194.04 30.9906C193.659 30.1492 193.105 29.3987 192.41 28.7891C191.716 28.1795 190.901 27.7247 190.017 27.4552C189.135 27.1855 188.204 27.1073 187.289 27.2256C186.372 27.3441 185.493 27.6563 184.707 28.1414C183.921 28.6268 183.248 29.274 182.732 30.0398C182.216 30.8058 181.87 31.6729 181.715 32.5832C181.561 33.4937 181.602 34.4266 181.837 35.3197C181.052 34.7504 180.149 34.3639 179.195 34.1889C178.241 34.0138 177.26 34.0547 176.324 34.3085C175.387 34.562 174.52 35.0221 173.784 35.6549C173.049 36.2877 172.466 37.0771 172.074 37.965C171.684 38.853 171.497 39.8171 171.529 40.7867C171.56 41.7563 171.808 42.7064 172.254 43.5678C172.699 44.4291 173.333 45.1796 174.107 45.7641C174.881 46.3488 175.776 46.7526 176.727 46.946C177.115 47.9753 177.758 48.8892 178.596 49.6021C179.433 50.3148 180.439 50.8033 181.517 51.0216C182.594 51.2399 183.711 51.181 184.76 50.8503C185.808 50.5195 186.756 49.9278 187.515 49.1306C188.29 49.716 189.187 50.12 190.14 50.3128C191.092 50.5057 192.075 50.4825 193.017 50.2449C193.96 50.0074 194.836 49.5614 195.584 48.9402C196.331 48.3188 196.928 47.5378 197.334 46.6545C198.568 46.1871 199.628 45.3556 200.379 44.2704C201.128 43.1851 201.529 41.8978 201.529 40.5789Z" fill="white"/>
<path d="M30.0022 24.9613C30.003 24.1077 29.8356 23.2623 29.5097 22.4734C29.1835 21.6845 28.7053 20.9676 28.1019 20.3636C27.4988 19.7596 26.7824 19.2804 25.9939 18.9535C25.2055 18.6265 24.3602 18.458 23.5066 18.4578C23.3624 18.4578 23.2198 18.4578 23.0787 18.4719C23.0882 18.3309 23.0928 18.1883 23.0928 18.0441C23.0927 17.1208 22.8957 16.2079 22.5149 15.3666C22.1343 14.5253 21.5786 13.7749 20.885 13.1653C20.1914 12.5556 19.3757 12.1009 18.4925 11.8313C17.6092 11.5617 16.6787 11.4835 15.7629 11.6018C14.8471 11.7201 13.9671 12.0324 13.1814 12.5176C12.3957 13.0029 11.7226 13.6501 11.2067 14.416C10.6909 15.1819 10.3442 16.049 10.1899 16.9594C10.0355 17.8699 10.077 18.8028 10.3116 19.6959C9.52633 19.1264 8.62353 18.7399 7.66945 18.565C6.71537 18.39 5.7342 18.4309 4.79796 18.6844C3.86172 18.9382 2.99416 19.3983 2.25895 20.0311C1.52374 20.6638 0.939544 21.4532 0.549223 22.3411C0.158903 23.2292 -0.0276328 24.1933 0.00330607 25.1628C0.034245 26.1322 0.281874 27.0825 0.728018 27.9438C1.17416 28.8053 1.8075 29.5557 2.58156 30.1403C3.35561 30.7248 4.25074 31.1288 5.20125 31.3222C5.5897 32.3505 6.23272 33.2635 7.0701 33.9756C7.90748 34.6878 8.91186 35.1758 9.98923 35.3941C11.0666 35.6124 12.1817 35.5537 13.2303 35.2236C14.2788 34.8936 15.2264 34.3028 15.9845 33.5067C16.76 34.0922 17.657 34.4962 18.6094 34.6889C19.5617 34.8819 20.5452 34.8587 21.4874 34.6209C22.4295 34.3834 23.3064 33.9375 24.0535 33.3162C24.8005 32.6948 25.3987 31.9139 25.8039 31.0307C27.0366 30.5642 28.0983 29.7338 28.8482 28.6498C29.598 27.5658 30.0005 26.2794 30.0022 24.9613Z" fill="white"/>
<path d="M149.53 117.41H56.0521V115.372H149.53C149.8 115.372 150.059 115.48 150.25 115.671C150.441 115.862 150.548 116.121 150.548 116.391C150.548 116.661 150.441 116.92 150.25 117.111C150.059 117.302 149.8 117.41 149.53 117.41Z" fill="#426572"/>
<path d="M51.871 117.41H46.1558C45.8857 117.41 45.6266 117.302 45.4356 117.111C45.2446 116.92 45.1372 116.661 45.1372 116.391C45.1372 116.121 45.2446 115.862 45.4356 115.671C45.6266 115.48 45.8857 115.372 46.1558 115.372H51.871C52.1412 115.372 52.4003 115.48 52.5913 115.671C52.7823 115.862 52.8897 116.121 52.8897 116.391C52.8897 116.661 52.7823 116.92 52.5913 117.111C52.4003 117.302 52.1412 117.41 51.871 117.41Z" fill="#426572"/>
<path d="M42.4465 117.41H40.6255C40.3554 117.41 40.0963 117.302 39.9053 117.111C39.7143 116.92 39.6069 116.661 39.6069 116.391C39.6069 116.121 39.7143 115.862 39.9053 115.671C40.0963 115.48 40.3554 115.372 40.6255 115.372H42.4465C42.7167 115.372 42.9757 115.48 43.1668 115.671C43.3578 115.862 43.4651 116.121 43.4651 116.391C43.4651 116.661 43.3578 116.92 43.1668 117.111C42.9757 117.302 42.7167 117.41 42.4465 117.41Z" fill="#426572"/>
<path d="M182.307 117.41H153.576V115.372H182.307C182.577 115.372 182.837 115.48 183.028 115.671C183.219 115.862 183.326 116.121 183.326 116.391C183.326 116.661 183.219 116.92 183.028 117.111C182.837 117.302 182.577 117.41 182.307 117.41Z" fill="#426572"/>
<path d="M35.4165 117.41H6.68372V115.372H35.4165C35.6867 115.372 35.9457 115.48 36.1368 115.671C36.3278 115.862 36.4351 116.121 36.4351 116.391C36.4351 116.661 36.3278 116.92 36.1368 117.111C35.9457 117.302 35.6867 117.41 35.4165 117.41Z" fill="#426572"/>
<path d="M39.8467 37.8805H154.36C154.634 37.8805 154.907 37.9346 155.161 38.0397C155.415 38.145 155.645 38.2992 155.84 38.4937C156.034 38.688 156.189 38.9189 156.294 39.1729C156.399 39.4269 156.453 39.6991 156.453 39.9741V112.611H37.7531V39.9741C37.7531 39.6991 37.8073 39.4269 37.9124 39.1729C38.0176 38.9189 38.1718 38.688 38.3663 38.4937C38.5607 38.2992 38.7914 38.145 39.0454 38.0397C39.2995 37.9346 39.5718 37.8805 39.8467 37.8805Z" fill="#EBF0F9"/>
<path d="M152.324 43.0659H42.3494V105.891H152.324V43.0659Z" fill="#637F91"/>
<path d="M41.5282 105.774H152.792C152.792 106.273 152.594 106.751 152.242 107.104C151.889 107.456 151.411 107.654 150.912 107.654H43.4087C42.9099 107.654 42.4316 107.456 42.079 107.104C41.7263 106.751 41.5282 106.273 41.5282 105.774Z" fill="white"/>
<g opacity="0.5">
<path opacity="0.5" d="M75.2115 42.8308L58.7695 106.245H50.4889L66.9309 42.8308H75.2115Z" fill="#A7BCD5"/>
<path opacity="0.5" d="M96.3187 42.8308L79.8751 106.245H62.5116L78.9536 42.8308H96.3187Z" fill="#A7BCD5"/>
</g>
<path d="M157.389 113.551H36.8129V45.0044C36.8154 42.8664 37.6658 40.8168 39.1776 39.3048C40.6894 37.7931 42.7392 36.9426 44.8772 36.9402H90.0254V38.8208H44.8772C43.2378 38.8228 41.6662 39.4749 40.5068 40.6342C39.3477 41.7934 38.6954 43.3651 38.6934 45.0044V111.67H155.508V40.5335C155.508 40.0793 155.327 39.644 155.006 39.3229C154.685 39.0018 154.25 38.8211 153.795 38.8208H110.866V36.9402H153.795C154.748 36.9431 155.66 37.3226 156.333 37.9958C157.006 38.6691 157.386 39.5814 157.389 40.5335V113.551Z" fill="#426572"/>
<path d="M22.7826 110.369H174.6V110.858C174.6 112.478 173.956 114.033 172.811 115.179C171.664 116.325 170.109 116.969 168.489 116.969H28.8943C27.2734 116.969 25.7189 116.325 24.5727 115.179C23.4265 114.033 22.7826 112.478 22.7826 110.858V110.369Z" fill="#EBF0F9"/>
<path opacity="0.5" d="M173.825 113.554C173.491 114.422 172.902 115.167 172.135 115.693C171.369 116.219 170.462 116.501 169.532 116.5H26.9087C25.9793 116.501 25.0718 116.219 24.3055 115.693C23.5392 115.167 22.9504 114.422 22.6165 113.554H173.825Z" fill="#A7BCD5"/>
<path d="M167.782 117.678H28.1875C26.3177 117.675 24.5253 116.932 23.2033 115.61C21.8813 114.288 21.1375 112.495 21.1355 110.626V109.196H174.834V110.626C174.832 112.495 174.088 114.288 172.767 115.61C171.444 116.932 169.651 117.675 167.782 117.678ZM23.0364 111.075C23.1492 112.364 23.741 113.563 24.6949 114.437C25.6488 115.311 26.8954 115.796 28.189 115.795H167.783C169.076 115.796 170.324 115.311 171.278 114.437C172.231 113.563 172.823 112.364 172.936 111.075H23.0364Z" fill="#426572"/>
<path d="M153.028 106.479H41.1741V42.1256H153.028V106.479ZM43.053 104.598H151.147V44.0061H43.0546L43.053 104.598Z" fill="#426572"/>
<path d="M171.772 58.1542V75.4817C171.768 75.855 171.62 76.2123 171.356 76.4763C171.091 76.7402 170.734 76.8896 170.361 76.8921H139.593C139.395 76.8926 139.2 76.8509 139.019 76.7699C138.769 76.6595 138.556 76.4787 138.406 76.2493C138.257 76.02 138.177 75.7522 138.178 75.4786V58.1542C138.177 57.8684 138.263 57.5892 138.425 57.3536C138.587 57.1179 138.817 56.9371 139.083 56.8348C139.244 56.7722 139.415 56.7404 139.588 56.7407H170.352C170.692 56.7418 171.021 56.8653 171.28 57.0889C171.537 57.3124 171.704 57.6211 171.753 57.9584C171.764 58.0231 171.77 58.0886 171.772 58.1542Z" fill="white"/>
<path d="M171.537 57.6822V75.0096C171.533 75.3829 171.385 75.7402 171.121 76.0043C170.856 76.2682 170.499 76.4177 170.126 76.42H139.358C139.16 76.4205 138.965 76.3788 138.784 76.2978C138.534 76.1875 138.321 76.0066 138.171 75.7774C138.022 75.5481 137.942 75.2803 137.943 75.0065V74.7714H168.236C168.609 74.7691 168.967 74.6196 169.231 74.3557C169.495 74.0918 169.644 73.7343 169.647 73.3611V56.2687H170.117C170.457 56.2698 170.786 56.3934 171.045 56.6169C171.302 56.8405 171.469 57.1491 171.518 57.4863C171.529 57.5512 171.535 57.6165 171.537 57.6822Z" fill="#D6DEE9"/>
<path d="M170.121 77.6004H139.358C139.027 77.601 138.7 77.531 138.399 77.3951C137.983 77.2103 137.629 76.9088 137.382 76.5272C137.134 76.1455 137.002 75.7001 137.002 75.245V57.9192C137.005 57.4536 137.144 56.9988 137.403 56.612C137.663 56.2251 138.03 55.9233 138.46 55.744L138.616 55.6594H138.692C138.906 55.5966 139.128 55.5649 139.351 55.5654H170.115C170.682 55.5674 171.229 55.7732 171.657 56.1452C172.085 56.5171 172.366 57.0305 172.447 57.5916C172.463 57.7001 172.471 57.8096 172.471 57.9192V75.2466C172.472 75.7362 172.319 76.2137 172.033 76.6115C171.815 76.9162 171.529 77.1647 171.196 77.3366C170.864 77.5086 170.496 77.599 170.121 77.6004ZM139.076 57.5415C139.016 57.5851 138.967 57.6423 138.934 57.7081C138.9 57.7739 138.883 57.8468 138.883 57.9207V75.2466C138.883 75.3386 138.909 75.4285 138.96 75.5053C139.01 75.5823 139.082 75.6426 139.166 75.6791C139.227 75.7062 139.292 75.7202 139.358 75.7199H170.121C170.197 75.7197 170.272 75.7014 170.339 75.6661C170.407 75.6309 170.463 75.5799 170.507 75.5177C170.563 75.4381 170.595 75.3428 170.595 75.245V57.9192C170.596 57.8994 170.596 57.8795 170.595 57.8596C170.579 57.7454 170.524 57.6404 170.438 57.5641C170.35 57.4877 170.241 57.4453 170.125 57.4443H139.358C139.314 57.4442 139.27 57.4506 139.228 57.4631L139.076 57.5415Z" fill="#426572"/>
<path d="M146.838 65.8329C146.372 65.5538 145.864 65.3523 145.333 65.2358C145.604 65.0672 145.827 64.8322 145.98 64.5527C146.134 64.2735 146.213 63.9593 146.211 63.6405C146.208 63.3168 146.12 62.9994 145.957 62.7196C145.794 62.4397 145.562 62.207 145.282 62.0441C145.002 61.8815 144.685 61.7942 144.361 61.791C144.037 61.7879 143.718 61.8691 143.435 62.0264C143.152 62.1838 142.915 62.4119 142.747 62.6885C142.578 62.9651 142.485 63.2807 142.476 63.6045C142.466 63.9281 142.541 64.2486 142.693 64.5346C142.845 64.8206 143.068 65.0622 143.341 65.2358C142.789 65.3465 142.259 65.5499 141.774 65.8376C141.655 65.9152 141.556 66.0194 141.484 66.1421C141.413 66.2648 141.371 66.4026 141.362 66.5444V68.7838C141.362 68.9083 141.412 69.0279 141.5 69.1161C141.588 69.2044 141.707 69.2539 141.832 69.2539H146.783C146.907 69.2539 147.027 69.2044 147.115 69.1161C147.203 69.0279 147.253 68.9083 147.253 68.7838V66.5412C147.246 66.3983 147.205 66.2592 147.133 66.1357C147.06 66.0123 146.959 65.9083 146.838 65.8329Z" fill="#426572"/>
<path d="M166.586 59.671H150.084V61.5515H166.586V59.671Z" fill="#426572"/>
<path d="M160.692 62.9712H150.084V64.8517H160.692V62.9712Z" fill="#426572"/>
<path d="M166.351 69.4545H150.084V71.335H166.351V69.4545Z" fill="#426572"/>
<path d="M98.8246 116.855C98.8246 116.855 123.908 104.318 123.908 85.5019V60.4173L98.8246 54.1489L73.7416 60.4173V85.5004C73.7416 104.313 98.8246 116.855 98.8246 116.855Z" fill="#E8837E"/>
<path d="M103.797 114.545C102.185 115.608 100.52 116.588 98.8089 117.482C98.8089 117.482 73.7258 104.945 73.7258 86.1272V61.0441L79.2107 59.6729V80.9369C79.2107 97.3288 95.7812 109.585 103.797 114.545Z" fill="#D66765"/>
<path d="M98.3231 117.904L97.9031 117.694C97.643 117.564 91.4514 114.443 85.1626 108.939C81.4501 105.69 78.4883 102.29 76.3586 98.8281C73.6648 94.4511 72.2998 89.9677 72.2998 85.5077V59.6834L98.3231 53.1768L98.5519 53.2332L124.346 59.6819V85.4999C124.346 89.9677 122.981 94.4511 120.288 98.8202C118.158 102.282 115.196 105.683 111.484 108.931C105.195 114.435 99.0032 117.55 98.7431 117.687L98.3231 117.904ZM74.1803 61.1518V85.4999C74.1803 89.6135 75.4513 93.7663 77.9602 97.8424C79.9974 101.143 82.8307 104.401 86.4006 107.524C90.0653 110.702 94.0626 113.475 98.3231 115.794C102.595 113.467 106.603 110.686 110.277 107.497C113.839 104.376 116.672 101.122 118.697 97.8314C121.204 93.7569 122.458 89.6151 122.458 85.5077V61.1518L98.3231 55.1153L74.1803 61.1518Z" fill="#426572"/>
<path d="M83.7522 95.1361L94.5902 103.807L96.1291 105.039C96.9785 105.719 97.784 106.093 98.8935 105.944C99.3875 105.885 99.8612 105.713 100.278 105.441C100.695 105.169 101.044 104.805 101.297 104.377L113.16 84.9813L114.853 82.2154C115.752 80.7454 115.223 78.5311 113.673 77.7131C112.07 76.8653 110.13 77.3245 109.171 78.8931L97.3076 98.2876L95.6151 101.054L100.787 100.387L89.9516 91.7199L88.4127 90.4881C87.0713 89.4146 85.0513 89.0777 83.7584 90.4881C82.6615 91.6822 82.323 93.9937 83.7584 95.1424L83.7522 95.1361Z" fill="white"/>
<path opacity="0.2" d="M55.7888 55.0499C56.8841 52.9941 57.5565 50.7396 57.7665 48.4197C57.9763 46.0996 57.7193 43.7612 57.0108 41.542C56.3022 39.323 55.1563 37.2684 53.6409 35.4992C52.1254 33.7303 50.2709 32.2828 48.1868 31.2421C46.1027 30.2013 43.8314 29.5886 41.5066 29.4401C39.1819 29.2915 36.851 29.6101 34.6514 30.3769C32.4518 31.1438 30.4281 32.3436 28.6997 33.9052C26.9712 35.467 25.573 37.3589 24.5878 39.4698C23.2271 42.025 22.5236 44.8785 22.5407 47.7733C22.5578 50.6682 23.295 53.5132 24.6858 56.0521C26.0766 58.591 28.0773 60.7438 30.5075 62.3167C32.9378 63.8896 35.7213 64.8332 38.6071 65.0622C38.1036 65.1813 37.5921 65.2778 37.0729 65.3521C39.8047 65.7459 42.591 65.4859 45.2027 64.5934C47.8145 63.701 50.1772 62.2016 52.0967 60.2182C53.6326 58.7353 54.884 56.9836 55.7888 55.0499Z" fill="#606060"/>
<path d="M38.0429 60.9888C47.6757 60.9888 55.4848 53.1798 55.4848 43.5469C55.4848 33.9141 47.6757 26.1051 38.0429 26.1051C28.4101 26.1051 20.6011 33.9141 20.6011 43.5469C20.6011 53.1798 28.4101 60.9888 38.0429 60.9888Z" fill="#A8EF9E"/>
<path d="M54.6527 44.7933C54.6522 47.2941 54.1141 49.7654 53.0746 52.0399C52.0353 54.3144 50.519 56.3388 48.6287 57.9759C46.7383 59.6131 44.5181 60.8246 42.1184 61.5284C39.7188 62.2322 37.1958 62.4118 34.7207 62.055C38.871 61.4551 42.6664 59.3797 45.4113 56.2095C48.1562 53.0393 49.6671 48.9861 49.6671 44.7925C49.6671 40.599 48.1562 36.5458 45.4113 33.3756C42.6664 30.2053 38.871 28.1302 34.7207 27.5301C37.1961 27.1731 39.7193 27.3526 42.1193 28.0564C44.5192 28.7601 46.7397 29.9717 48.6303 31.609C50.5209 33.2463 52.0373 35.271 53.0766 37.5458C54.1159 39.8206 54.6541 42.2924 54.6542 44.7933H54.6527Z" fill="#A7E59C"/>
<path d="M37.6277 62.7585C33.9919 62.7589 30.4377 61.681 27.4146 59.6612C24.3913 57.6415 22.035 54.7706 20.6436 51.4116C19.252 48.0527 18.888 44.3565 19.5971 40.7906C20.3064 37.2247 22.0571 33.9493 24.628 31.3783C27.199 28.8074 30.4744 27.0567 34.0403 26.3474C37.6062 25.6383 41.3024 26.0023 44.6613 27.3939C48.0204 28.7853 50.8912 31.1416 52.911 34.1649C54.9307 37.188 56.0086 40.7422 56.0082 44.378C56.0024 49.2511 54.0641 53.9228 50.6184 57.3687C47.1726 60.8144 42.5008 62.7528 37.6277 62.7585ZM37.6277 27.8764C34.3639 27.8761 31.1734 28.8436 28.4595 30.6566C25.7456 32.4698 23.6304 35.0469 22.3811 38.062C21.1319 41.0772 20.8049 44.3953 21.4414 47.5964C22.078 50.7975 23.6495 53.7378 25.9572 56.0459C28.2649 58.3537 31.2053 59.9255 34.4062 60.5624C37.6073 61.1993 40.9254 60.8725 43.9406 59.6236C46.956 58.3747 49.5333 56.2596 51.3466 53.5459C53.1599 50.8323 54.1277 47.6418 54.1277 44.378C54.1232 40.0031 52.3834 35.8088 49.2901 32.7152C46.1968 29.6216 42.0026 27.8814 37.6277 27.8764Z" fill="#426572"/>
<path d="M108.49 37.0234H104.964V38.904H108.49V37.0234Z" fill="#426572"/>
<path d="M102.691 37.0234H93.1846V38.904H102.691V37.0234Z" fill="#426572"/>
<path d="M44.4837 53.912C39.3656 54.6376 33.0564 52.7602 33.0564 52.7602L29.9457 53.3792C29.8094 53.4055 29.6688 53.4006 29.5347 53.3651C29.4004 53.3295 29.276 53.264 29.1705 53.1736C29.065 53.0833 28.9813 52.9703 28.9257 52.8431C28.8699 52.7158 28.8436 52.5778 28.8488 52.4389C28.9118 50.2143 28.8547 47.9879 28.678 45.7693C28.6623 45.609 28.6889 45.4474 28.7552 45.3006C28.8217 45.1539 28.9254 45.0272 29.0561 44.9331C29.1869 44.8389 29.3401 44.7808 29.5002 44.7645C29.6605 44.7482 29.8223 44.7742 29.9692 44.84C30.6701 45.1859 31.4382 45.3743 32.2196 45.3917C34.108 45.376 35.7566 43.928 36.5997 42.2089C37.4428 40.4898 37.6339 39.3756 37.811 37.4637C37.8878 36.6284 38.01 35.7023 38.6447 35.1663C39.7417 34.237 41.547 35.323 41.9027 36.7256C42.2585 38.1281 41.6849 38.7519 41.2007 40.1152C40.8872 41.0053 40.9562 41.0555 40.7023 41.9722C40.67 42.0467 40.6541 42.1272 40.6558 42.2084C40.6574 42.2894 40.6765 42.3694 40.7117 42.4424C40.7572 42.4933 40.8126 42.5344 40.8747 42.563C40.9366 42.5916 41.0038 42.6071 41.0722 42.6085C42.097 42.7401 42.7693 43.1225 43.7958 43.2353C44.2675 43.2864 44.7158 43.4679 45.0902 43.7594C45.4648 44.0508 45.7507 44.4407 45.9161 44.8855V52.5784C45.9176 52.7619 45.8811 52.9438 45.8089 53.1125C45.7365 53.2812 45.6299 53.4329 45.4959 53.5583C45.3618 53.6837 45.2032 53.7799 45.03 53.8408C44.8569 53.9017 44.673 53.9259 44.49 53.912H44.4837Z" fill="#85D175"/>
<defs>
<linearGradient id="paint0_linear_34_1287" x1="0.20685" y1="59.1539" x2="196.609" y2="59.1539" gradientUnits="userSpaceOnUse">
<stop stop-color="#E6A851"/>
<stop offset="1" stop-color="#FFC805"/>
</linearGradient>
</defs>
</svg>
