<svg width="193" height="113" viewBox="0 0 193 113" fill="none" xmlns="http://www.w3.org/2000/svg">
<path d="M182.187 68.2044C175.39 85.8043 162.61 101.224 144.859 108C142.551 108.88 140.193 109.627 137.799 110.236C125.134 113.465 111.279 112.342 99.6049 106.458C94.6501 103.959 90.132 100.657 85.1592 98.1936C80.1864 95.7304 74.5078 94.1181 69.0953 95.334C64.4351 96.3809 60.5033 99.3811 56.5445 102.054C47.2122 108.354 35.9909 113.341 24.9402 111.177C19.8552 110.182 14.8481 107.427 12.4866 102.822C7.26705 92.642 17.1109 80.5384 15.1173 69.2798C13.8416 62.0741 8.01483 56.6781 4.39257 50.319C-1.80656 39.4417 -1.07374 24.993 6.19473 14.8008C13.4632 4.60847 26.8814 -0.798012 39.184 1.51414C54.186 4.33478 65.5284 17.0306 80.1161 21.5233C89.2391 24.3305 99.1443 23.493 107.857 19.7959C121.935 13.8212 141.276 4.65782 157.118 6.1504C165.543 6.94454 173.806 10.6835 179.366 17.068C186.396 25.1276 188.503 36.5702 187.33 47.1977C186.526 54.3918 184.797 61.4523 182.187 68.2044Z" fill="url(#paint0_linear_34_1335)"/>
<path d="M186.71 82.1255C186.397 82.1251 186.086 82.0875 185.782 82.0133C184.822 81.7773 183.989 81.1841 183.452 80.3543C182.915 79.5246 182.715 78.521 182.893 77.5488C183.07 76.5765 183.612 75.7086 184.408 75.1224C185.204 74.5362 186.194 74.2759 187.175 74.3946C188.156 74.5134 189.055 75.0021 189.687 75.7611C190.322 76.5201 190.64 77.4922 190.582 78.4789C190.522 79.4655 190.088 80.3923 189.369 81.0699C188.649 81.7477 187.698 82.1252 186.71 82.1255ZM186.71 76.1163C186.195 76.1183 185.7 76.3082 185.316 76.6502C184.932 76.9923 184.686 77.4629 184.625 77.9735C184.565 78.484 184.692 78.9992 184.985 79.4221C185.277 79.8451 185.714 80.1464 186.213 80.2695C186.502 80.3391 186.802 80.3465 187.096 80.2915C187.387 80.2366 187.664 80.1204 187.908 79.9505C188.151 79.7808 188.358 79.5612 188.51 79.3064C188.663 79.0515 188.762 78.7672 188.796 78.4721C188.832 78.1769 188.804 77.8776 188.715 77.5939C188.627 77.3102 188.479 77.0485 188.282 76.826C188.084 76.6034 187.843 76.4252 187.571 76.3028C187.3 76.1805 187.007 76.1169 186.71 76.1163Z" fill="#E7F6FF"/>
<path d="M183.17 86.2395C183.39 85.33 182.832 84.4138 181.921 84.1934C181.012 83.9728 180.096 84.5314 179.875 85.4408C179.655 86.3503 180.213 87.2663 181.122 87.4869C182.033 87.7074 182.948 87.1489 183.17 86.2395Z" fill="#E7F6FF"/>
<path d="M8.25406 81.7558C7.22683 81.7333 6.24991 81.3066 5.53539 80.5683C4.82085 79.8299 4.42638 78.8396 4.43761 77.8123C4.44883 76.7848 4.86485 75.8033 5.59535 75.0808C6.32583 74.3581 7.31184 73.9529 8.33931 73.9529C9.36679 73.9529 10.3528 74.3581 11.0833 75.0808C11.8138 75.8033 12.2298 76.7848 12.241 77.8123C12.2522 78.8396 11.8578 79.8299 11.1432 80.5683C10.4287 81.3066 9.45179 81.7333 8.42456 81.7558H8.25406ZM8.25406 75.7481H8.16582C7.61103 75.7602 7.08336 75.9905 6.69738 76.3892C6.31142 76.7879 6.0983 77.3228 6.10432 77.8778C6.11031 78.4326 6.33496 78.9626 6.72948 79.353C7.12398 79.7432 7.65651 79.9621 8.21144 79.9621C8.76637 79.9621 9.29889 79.7432 9.69341 79.353C10.0879 78.9626 10.3126 78.4326 10.3186 77.8778C10.3246 77.3228 10.1115 76.7879 9.72549 76.3892C9.33951 75.9905 8.81185 75.7602 8.25705 75.7481H8.25406Z" fill="#E7F6FF"/>
<path d="M5.47213 88.3037C6.4071 88.2633 7.13234 87.4727 7.09201 86.5377C7.05167 85.6028 6.26104 84.8775 5.32607 84.9179C4.39112 84.9582 3.66587 85.7488 3.70619 86.6838C3.74653 87.6187 4.53716 88.3441 5.47213 88.3037Z" fill="#E7F6FF"/>
<path d="M106.048 18.6711C105.117 18.6719 104.216 18.3394 103.509 17.7337C102.802 17.128 102.335 16.2891 102.193 15.3689C102.05 14.4487 102.242 13.508 102.734 12.7171C103.225 11.9262 103.983 11.3373 104.871 11.057C105.759 10.7767 106.718 10.8235 107.574 11.189C108.431 11.5545 109.128 12.2145 109.54 13.0495C109.952 13.8846 110.051 14.8395 109.82 15.7414C109.588 16.6434 109.042 17.4328 108.279 17.9667C107.625 18.4243 106.846 18.6702 106.048 18.6711ZM106.036 12.6649C105.491 12.6643 104.967 12.874 104.573 13.2503C104.179 13.6266 103.945 14.1404 103.921 14.6846C103.897 15.2288 104.083 15.7615 104.442 16.1717C104.8 16.5818 105.303 16.8377 105.846 16.886C106.389 16.9343 106.929 16.7714 107.354 16.431C107.78 16.0908 108.058 15.5995 108.13 15.0595C108.202 14.5195 108.063 13.9725 107.742 13.5325C107.42 13.0925 106.942 12.7935 106.405 12.6978C106.283 12.676 106.16 12.665 106.036 12.6649Z" fill="#E7F6FF"/>
<path d="M98.0921 18.4581C98.8583 17.9208 99.0439 16.8642 98.5065 16.0978C97.9691 15.3317 96.9125 15.1461 96.1464 15.6834C95.38 16.2208 95.1946 17.2774 95.7318 18.0437C96.2691 18.8099 97.3259 18.9955 98.0921 18.4581Z" fill="#E7F6FF"/>
<path d="M192.33 38.7715C192.33 37.1272 191.676 35.5499 190.514 34.3871C189.351 33.2242 187.775 32.5709 186.129 32.5709C185.992 32.5709 185.856 32.5709 185.721 32.5844C185.73 32.4498 185.735 32.3137 185.735 32.1761C185.735 31.2949 185.546 30.4237 185.183 29.6209C184.819 28.8179 184.29 28.1017 183.627 27.5199C182.965 26.9382 182.187 26.5041 181.344 26.2469C180.502 25.9895 179.613 25.9149 178.74 26.0278C177.865 26.1409 177.026 26.4388 176.275 26.9018C175.526 27.365 174.883 27.9827 174.391 28.7135C173.899 29.4446 173.568 30.2721 173.42 31.1408C173.274 32.0098 173.312 32.9001 173.537 33.7524C172.787 33.2091 171.926 32.8403 171.015 32.6732C170.104 32.5062 169.168 32.5452 168.275 32.7873C167.381 33.0293 166.554 33.4684 165.851 34.0723C165.15 34.6762 164.593 35.4295 164.219 36.2769C163.847 37.1245 163.669 38.0445 163.699 38.9698C163.729 39.8952 163.965 40.8019 164.391 41.624C164.816 42.446 165.42 43.1622 166.159 43.7201C166.898 44.2781 167.752 44.6635 168.66 44.848C169.031 45.8303 169.644 46.7025 170.444 47.3829C171.243 48.063 172.203 48.5292 173.23 48.7376C174.259 48.9459 175.325 48.8896 176.326 48.5741C177.327 48.2584 178.231 47.6936 178.955 46.9328C179.695 47.4916 180.551 47.8771 181.46 48.0611C182.37 48.2452 183.307 48.2231 184.206 47.9963C185.106 47.7696 185.942 47.344 186.656 46.7511C187.369 46.1581 187.939 45.4128 188.326 44.5699C189.503 44.1237 190.516 43.3302 191.232 42.2945C191.947 41.2588 192.33 40.0302 192.33 38.7715Z" fill="white"/>
<path d="M28.6327 23.8669C28.6334 23.0522 28.4737 22.2454 28.1626 21.4925C27.8514 20.7396 27.3949 20.0554 26.8192 19.479C26.2435 18.9026 25.5599 18.4453 24.8073 18.1333C24.0549 17.8212 23.2482 17.6604 22.4336 17.6603C22.296 17.6603 22.1599 17.6603 22.0253 17.6737C22.0342 17.5391 22.0387 17.403 22.0387 17.2654C22.0386 16.3842 21.8506 15.5131 21.4872 14.7102C21.1239 13.9073 20.5936 13.1911 19.9316 12.6093C19.2697 12.0275 18.4912 11.5935 17.6483 11.3362C16.8054 11.0789 15.9174 11.0042 15.0434 11.1172C14.1694 11.2301 13.3295 11.5281 12.5797 11.9912C11.8299 12.4543 11.1875 13.0719 10.6952 13.8029C10.2028 14.5338 9.87202 15.3613 9.72471 16.2302C9.5774 17.0991 9.617 17.9894 9.84087 18.8418C9.09147 18.2983 8.22989 17.9295 7.31936 17.7626C6.40883 17.5955 5.47245 17.6345 4.57894 17.8765C3.68544 18.1186 2.85748 18.5577 2.15584 19.1617C1.45419 19.7656 0.896656 20.5189 0.524152 21.3663C0.15165 22.2138 -0.0263715 23.1339 0.00315516 24.0592C0.0326818 24.9844 0.269007 25.8913 0.694786 26.7132C1.12057 27.5353 1.72499 28.2516 2.46372 28.8094C3.20244 29.3673 4.0567 29.7528 4.96383 29.9374C5.33455 30.9188 5.94821 31.7901 6.74736 32.4697C7.54652 33.1494 8.50506 33.6151 9.53325 33.8235C10.5614 34.0318 11.6257 33.9757 12.6263 33.6607C13.627 33.3458 14.5314 32.7819 15.2548 32.0222C15.995 32.5809 16.851 32.9665 17.7599 33.1505C18.6688 33.3346 19.6074 33.3124 20.5065 33.0855C21.4056 32.8588 22.2426 32.4333 22.9555 31.8403C23.6684 31.2473 24.2393 30.5021 24.6261 29.6592C25.8025 29.214 26.8157 28.4215 27.5313 27.387C28.247 26.3525 28.631 25.1248 28.6327 23.8669Z" fill="white"/>
<path d="M142.704 112.095H53.4935V110.151H142.704C142.962 110.151 143.209 110.253 143.392 110.435C143.574 110.618 143.676 110.865 143.676 111.123C143.676 111.381 143.574 111.628 143.392 111.81C143.209 111.993 142.962 112.095 142.704 112.095Z" fill="#426572"/>
<path d="M49.5034 112.095H44.049C43.7912 112.095 43.544 111.993 43.3617 111.81C43.1793 111.628 43.0769 111.381 43.0769 111.123C43.0769 110.865 43.1793 110.618 43.3617 110.435C43.544 110.253 43.7912 110.151 44.049 110.151H49.5034C49.7612 110.151 50.0084 110.253 50.1907 110.435C50.373 110.618 50.4755 110.865 50.4755 111.123C50.4755 111.381 50.373 111.628 50.1907 111.81C50.0084 111.993 49.7612 112.095 49.5034 112.095Z" fill="#426572"/>
<path d="M40.509 112.095H38.7712C38.5134 112.095 38.2661 111.993 38.0838 111.81C37.9015 111.628 37.7991 111.381 37.7991 111.123C37.7991 110.865 37.9015 110.618 38.0838 110.435C38.2661 110.253 38.5134 110.151 38.7712 110.151H40.509C40.7669 110.151 41.0141 110.253 41.1964 110.435C41.3787 110.618 41.4812 110.865 41.4812 111.123C41.4812 111.381 41.3787 111.628 41.1964 111.81C41.0141 111.993 40.7669 112.095 40.509 112.095Z" fill="#426572"/>
<path d="M173.985 112.095H146.566V110.151H173.985C174.243 110.151 174.491 110.253 174.673 110.435C174.856 110.618 174.958 110.865 174.958 111.123C174.958 111.381 174.856 111.628 174.673 111.81C174.491 111.993 174.243 112.095 173.985 112.095Z" fill="#426572"/>
<path d="M33.7999 112.095H6.37866V110.151H33.7999C34.0577 110.151 34.305 110.253 34.4873 110.435C34.6696 110.618 34.772 110.865 34.772 111.123C34.772 111.381 34.6696 111.628 34.4873 111.81C34.305 111.993 34.0577 112.095 33.7999 112.095Z" fill="#426572"/>
<path d="M106.484 27.1301V111.229H15.3805V27.1301C15.3821 26.6749 15.5637 26.2388 15.8855 25.9168C16.2075 25.595 16.6437 25.4134 17.0989 25.4117H104.765C104.868 25.4117 104.971 25.4213 105.073 25.4402C105.468 25.513 105.826 25.7219 106.084 26.0305C106.341 26.339 106.483 26.728 106.484 27.1301Z" fill="white"/>
<path d="M16.8132 33.7196H106.77V27.6775L105.05 25.4117H26.2682H17.1004L15.6676 27.6775V33.7196H16.8132Z" fill="#E2F2FF"/>
<path d="M107.667 112.126H14.7703V27.1302C14.7711 26.4367 15.0469 25.7719 15.5373 25.2815C16.0276 24.7911 16.6925 24.5152 17.386 24.5145H105.05C105.744 24.5152 106.409 24.7911 106.899 25.2815C107.389 25.7719 107.665 26.4367 107.666 27.1302L107.667 112.126ZM16.5649 110.332H105.873V27.1302C105.872 26.9126 105.786 26.704 105.632 26.5501C105.478 26.3962 105.269 26.3096 105.052 26.3091H17.386C17.1684 26.3096 16.9598 26.3962 16.8059 26.5501C16.652 26.704 16.5654 26.9126 16.5649 27.1302V110.332Z" fill="#426572"/>
<path d="M20.8991 31.0336C21.5319 31.0336 22.0447 30.5207 22.0447 29.888C22.0447 29.2553 21.5319 28.7424 20.8991 28.7424C20.2665 28.7424 19.7535 29.2553 19.7535 29.888C19.7535 30.5207 20.2665 31.0336 20.8991 31.0336Z" fill="#CADCE8"/>
<path d="M24.3359 31.0336C24.9687 31.0336 25.4815 30.5207 25.4815 29.888C25.4815 29.2553 24.9687 28.7424 24.3359 28.7424C23.7033 28.7424 23.1903 29.2553 23.1903 29.888C23.1903 30.5207 23.7033 31.0336 24.3359 31.0336Z" fill="#CADCE8"/>
<path d="M27.7743 31.0336C28.407 31.0336 28.9199 30.5207 28.9199 29.888C28.9199 29.2553 28.407 28.7424 27.7743 28.7424C27.1416 28.7424 26.6287 29.2553 26.6287 29.888C26.6287 30.5207 27.1416 31.0336 27.7743 31.0336Z" fill="#CADCE8"/>
<path d="M102.291 28.7412H32.6138C32.0769 28.7412 31.6417 29.1764 31.6417 29.7133V30.0603C31.6417 30.5972 32.0769 31.0324 32.6138 31.0324H102.291C102.828 31.0324 103.263 30.5972 103.263 30.0603V29.7133C103.263 29.1764 102.828 28.7412 102.291 28.7412Z" fill="#CADCE8"/>
<path d="M167.074 10.7999V111.229H75.9749V10.7999C75.9765 10.3446 76.1579 9.90846 76.4799 9.58653C76.8018 9.26461 77.238 9.08307 77.6933 9.08148H165.357C165.461 9.08151 165.564 9.09102 165.666 9.1099C166.06 9.1834 166.418 9.39247 166.675 9.70102C166.932 10.0096 167.073 10.3982 167.074 10.7999Z" fill="white"/>
<path d="M77.4046 17.3894H167.362V11.3473L165.642 9.08148H86.8596H79.1245L76.259 11.3473V17.3894H77.4046Z" fill="#E2F2FF"/>
<path d="M168.251 112.126H75.3617V10.7999C75.3624 10.1064 75.6384 9.44153 76.1286 8.95116C76.619 8.46078 77.284 8.18494 77.9774 8.18414H165.642C166.334 8.18652 166.998 8.46305 167.487 8.95327C167.976 9.44347 168.25 10.1074 168.251 10.7999V112.126ZM77.1489 110.331H166.457V10.7999C166.457 10.5823 166.37 10.3736 166.216 10.2197C166.062 10.0659 165.854 9.97923 165.636 9.97882H77.9774C77.7598 9.97923 77.5512 10.0659 77.3973 10.2197C77.2434 10.3736 77.1568 10.5823 77.1564 10.7999L77.1489 110.331Z" fill="#426572"/>
<path d="M81.4906 14.7039C82.1232 14.7039 82.6362 14.191 82.6362 13.5583C82.6362 12.9256 82.1232 12.4127 81.4906 12.4127C80.8578 12.4127 80.345 12.9256 80.345 13.5583C80.345 14.191 80.8578 14.7039 81.4906 14.7039Z" fill="#CADCE8"/>
<path d="M84.9273 14.7039C85.5601 14.7039 86.0729 14.191 86.0729 13.5583C86.0729 12.9256 85.5601 12.4127 84.9273 12.4127C84.2947 12.4127 83.7817 12.9256 83.7817 13.5583C83.7817 14.191 84.2947 14.7039 84.9273 14.7039Z" fill="#CADCE8"/>
<path d="M88.3657 14.7039C88.9983 14.7039 89.5113 14.191 89.5113 13.5583C89.5113 12.9256 88.9983 12.4127 88.3657 12.4127C87.7329 12.4127 87.2201 12.9256 87.2201 13.5583C87.2201 14.191 87.7329 14.7039 88.3657 14.7039Z" fill="#CADCE8"/>
<path d="M162.882 12.4127H93.2053C92.6684 12.4127 92.2332 12.8479 92.2332 13.3848V13.7317C92.2332 14.2686 92.6684 14.7039 93.2053 14.7039H162.882C163.419 14.7039 163.854 14.2686 163.854 13.7317V13.3848C163.854 12.8479 163.419 12.4127 162.882 12.4127Z" fill="#CADCE8"/>
<path d="M105.966 28.1488H87.2335V49.492H105.966V28.1488Z" fill="#E8837E"/>
<path d="M152.149 28.1488H107.733V49.492H152.149V28.1488Z" fill="#E8837E"/>
<path d="M152.149 51.8547H131.178V73.198H152.149V51.8547Z" fill="#DDE4ED"/>
<path d="M129.41 51.8547H87.4698V73.198H129.41V51.8547Z" fill="#DDE4ED"/>
<path d="M152.267 75.5612H87.4698V96.9044H152.267V75.5612Z" fill="#DDE4ED"/>
<path d="M39.0777 80.2571H24.4944V81.7526H39.0777V80.2571Z" fill="#DDE4ED"/>
<path d="M39.0777 84.2682H24.4944V85.7638H39.0777V84.2682Z" fill="#DDE4ED"/>
<path d="M39.0777 88.2783H24.4944V89.7738H39.0777V88.2783Z" fill="#DDE4ED"/>
<path d="M39.0777 92.2894H24.4944V93.7849H39.0777V92.2894Z" fill="#DDE4ED"/>
<path d="M39.0777 96.2999H24.4944V97.7954H39.0777V96.2999Z" fill="#DDE4ED"/>
<path d="M39.0777 100.311H24.4944V101.807H39.0777V100.311Z" fill="#DDE4ED"/>
<path d="M32.0515 69.5189L34.935 64.5747L39.4022 68.3225V71.746H27.007L30.034 67.5658L32.0515 69.5189Z" fill="#DDE4ED"/>
<path d="M45.1079 67.1845H40.7842V61.9231L41.6486 61.0945L45.1079 64.6256V67.1845Z" fill="#DDE4ED"/>
<path d="M29.0529 66.754C29.5202 66.7537 29.9768 66.6148 30.365 66.355C30.7533 66.0951 31.0557 65.726 31.2341 65.2941C31.4123 64.8623 31.4587 64.3873 31.367 63.9292C31.2754 63.4711 31.05 63.0504 30.7192 62.7205C30.3883 62.3906 29.9672 62.1662 29.5088 62.0757C29.0505 61.9853 28.5756 62.0327 28.1442 62.2121C27.7129 62.3916 27.3446 62.6951 27.0857 63.0839C26.8268 63.4728 26.689 63.9298 26.6899 64.397C26.6931 65.0222 26.9433 65.6207 27.3858 66.0622C27.8285 66.5038 28.4278 66.7524 29.0529 66.754Z" fill="#DDE4ED"/>
<path opacity="0.2" d="M133.843 48.2537V110.083H42.7404V48.2537C42.7348 47.7914 42.9124 47.3456 43.2343 47.0139C43.5563 46.682 43.9965 46.4912 44.4588 46.483H132.123C132.586 46.4907 133.026 46.6816 133.348 47.0133C133.671 47.3452 133.849 47.7911 133.843 48.2537Z" fill="#606060"/>
<path d="M130.548 51.1953V111.229H39.4457V51.1953C39.4473 50.7401 39.6287 50.304 39.9507 49.982C40.2726 49.6601 40.7088 49.4786 41.1641 49.4769H128.828C128.932 49.4769 129.035 49.4865 129.136 49.5053C129.532 49.5783 129.889 49.7871 130.147 50.0956C130.405 50.4043 130.547 50.7933 130.548 51.1953Z" fill="white"/>
<path d="M40.8784 57.7832H130.834V51.7411L129.115 49.4753H50.3319H40.4492L39.7328 51.7411V57.7832H40.8784Z" fill="#E2F2FF"/>
<path d="M44.9627 54.812C45.5954 54.812 46.1083 54.299 46.1083 53.6664C46.1083 53.0336 45.5954 52.5208 44.9627 52.5208C44.33 52.5208 43.8171 53.0336 43.8171 53.6664C43.8171 54.299 44.33 54.812 44.9627 54.812Z" fill="#CADCE8"/>
<path d="M48.4011 54.812C49.0337 54.812 49.5467 54.299 49.5467 53.6664C49.5467 53.0336 49.0337 52.5208 48.4011 52.5208C47.7683 52.5208 47.2555 53.0336 47.2555 53.6664C47.2555 54.299 47.7683 54.812 48.4011 54.812Z" fill="#CADCE8"/>
<path d="M51.8395 54.812C52.4721 54.812 52.9851 54.299 52.9851 53.6664C52.9851 53.0336 52.4721 52.5208 51.8395 52.5208C51.2067 52.5208 50.6938 53.0336 50.6938 53.6664C50.6938 54.299 51.2067 54.812 51.8395 54.812Z" fill="#CADCE8"/>
<path d="M126.356 52.5208H56.679C56.1421 52.5208 55.7069 52.956 55.7069 53.4929V53.8398C55.7069 54.3768 56.1421 54.812 56.679 54.812H126.356C126.893 54.812 127.328 54.3768 127.328 53.8398V53.4929C127.328 52.956 126.893 52.5208 126.356 52.5208Z" fill="#CADCE8"/>
<path d="M65.5328 96.0458C67.7415 96.0458 69.532 94.2553 69.532 92.0466C69.532 89.838 67.7415 88.0475 65.5328 88.0475C63.3242 88.0475 61.5337 89.838 61.5337 92.0466C61.5337 94.2553 63.3242 96.0458 65.5328 96.0458Z" fill="#DDE4ED"/>
<path d="M85.1771 96.0458C87.3858 96.0458 89.1763 94.2553 89.1763 92.0466C89.1763 89.838 87.3858 88.0475 85.1771 88.0475C82.9685 88.0475 81.178 89.838 81.178 92.0466C81.178 94.2553 82.9685 96.0458 85.1771 96.0458Z" fill="#DDE4ED"/>
<path d="M104.821 96.0458C107.03 96.0458 108.821 94.2553 108.821 92.0466C108.821 89.838 107.03 88.0475 104.821 88.0475C102.613 88.0475 100.822 89.838 100.822 92.0466C100.822 94.2553 102.613 96.0458 104.821 96.0458Z" fill="#DDE4ED"/>
<path d="M117.26 65.3913H53.0957C52.1046 65.3913 51.301 66.1949 51.301 67.186V81.9323C51.301 82.9235 52.1046 83.727 53.0957 83.727H117.26C118.251 83.727 119.055 82.9235 119.055 81.9323V67.186C119.055 66.1949 118.251 65.3913 117.26 65.3913Z" fill="#E6A851"/>
<path d="M84.226 100.878H51.8529V102.673H84.226V100.878Z" fill="#E8EDF7"/>
<path d="M103.851 104.458H51.7108V106.253H103.851V104.458Z" fill="#E8EDF7"/>
<path d="M119.75 100.878H88.8098V102.673H119.75V100.878Z" fill="#E8EDF7"/>
<path opacity="0.3" d="M41.7833 111.085H40.4373V58.416H130.493V59.762H41.7833V111.085Z" fill="#C1CEDE"/>
<path d="M130.563 56.8859H39.8345V58.6805H130.563V56.8859Z" fill="#426572"/>
<path d="M131.731 112.126H38.8354V51.1954C38.8362 50.5019 39.1121 49.8371 39.6024 49.3467C40.0928 48.8563 40.7577 48.5805 41.4512 48.5797H129.115C129.809 48.5805 130.474 48.8563 130.964 49.3467C131.454 49.8371 131.73 50.5019 131.731 51.1954V112.126ZM40.6286 110.332H129.936V51.1954C129.936 50.9778 129.849 50.7692 129.696 50.6153C129.542 50.4614 129.333 50.3748 129.115 50.3743H41.4512C41.2336 50.3748 41.025 50.4614 40.8711 50.6153C40.7172 50.7692 40.6306 50.9778 40.6301 51.1954L40.6286 110.332Z" fill="#426572"/>
<path d="M154.7 100.318H138.084V101.514H154.7V100.318Z" fill="#DDE4ED"/>
<defs>
<linearGradient id="paint0_linear_34_1335" x1="0.197496" y1="56.4986" x2="187.634" y2="56.4986" gradientUnits="userSpaceOnUse">
<stop stop-color="#E6A851"/>
<stop offset="1" stop-color="#FFC805"/>
</linearGradient>
</defs>
</svg>
