<svg width="210" height="122" viewBox="0 0 210 122" fill="none" xmlns="http://www.w3.org/2000/svg">
<path d="M198.94 73.2999C191.527 92.4916 177.592 109.306 158.236 116.695C155.718 117.654 153.147 118.469 150.536 119.133C136.726 122.654 121.618 121.429 108.888 115.014C103.485 112.288 98.5583 108.688 93.1357 106.002C87.7132 103.316 81.5209 101.557 75.6189 102.883C70.5372 104.025 66.2497 107.296 61.9329 110.211C51.7565 117.081 39.5203 122.519 27.47 120.159C21.9252 119.074 16.4651 116.07 13.89 111.049C8.19842 99.9478 18.9326 86.7495 16.7587 74.4725C15.3676 66.6151 9.01384 60.7311 5.06395 53.7968C-1.69587 41.9357 -0.896764 26.1802 7.02911 15.066C14.955 3.95188 29.5869 -1.9436 43.0021 0.577676C59.3611 3.65344 71.7293 17.4976 87.6365 22.3966C97.5846 25.4577 108.386 24.5444 117.887 20.513C133.238 13.9978 154.328 4.0057 171.603 5.63327C180.79 6.49925 189.8 10.5763 195.864 17.5383C203.529 26.3269 205.827 38.8045 204.548 50.3932C203.671 58.238 201.785 65.937 198.94 73.2999Z" fill="url(#paint0_linear_34_1236)"/>
<path d="M203.871 88.4801C203.53 88.4796 203.191 88.4387 202.86 88.3578C201.813 88.1005 200.905 87.4535 200.319 86.5487C199.734 85.6439 199.515 84.5496 199.709 83.4894C199.902 82.4292 200.494 81.4828 201.361 80.8436C202.229 80.2044 203.309 79.9205 204.378 80.05C205.448 80.1795 206.428 80.7124 207.118 81.5401C207.81 82.3677 208.157 83.4278 208.093 84.5036C208.028 85.5795 207.555 86.5901 206.771 87.3291C205.986 88.0682 204.949 88.4798 203.871 88.4801ZM203.871 81.9274C203.31 81.9295 202.77 82.1367 202.351 82.5096C201.932 82.8826 201.665 83.3958 201.598 83.9526C201.533 84.5092 201.671 85.071 201.991 85.5322C202.309 85.9934 202.785 86.322 203.33 86.4563C203.645 86.5321 203.972 86.5402 204.292 86.4802C204.61 86.4204 204.912 86.2937 205.178 86.1084C205.443 85.9233 205.668 85.6839 205.835 85.406C206.001 85.1281 206.109 84.8181 206.146 84.4963C206.185 84.1744 206.154 83.8481 206.058 83.5387C205.962 83.2293 205.801 82.9439 205.585 82.7013C205.37 82.4586 205.107 82.2642 204.811 82.1308C204.515 81.9974 204.196 81.9281 203.871 81.9274Z" fill="#E7F6FF"/>
<path d="M200.011 92.9662C200.251 91.9745 199.643 90.9755 198.649 90.7351C197.658 90.4946 196.66 91.1037 196.418 92.0954C196.179 93.0871 196.787 94.086 197.779 94.3265C198.772 94.5669 199.77 93.958 200.011 92.9662Z" fill="#E7F6FF"/>
<path d="M9.27475 88.077C8.1546 88.0525 7.08933 87.5872 6.31018 86.7821C5.53101 85.977 5.10086 84.897 5.11311 83.7768C5.12534 82.6564 5.57899 81.5861 6.37556 80.7982C7.17211 80.0102 8.2473 79.5684 9.3677 79.5684C10.4881 79.5684 11.5633 80.0102 12.3599 80.7982C13.1564 81.5861 13.6101 82.6564 13.6223 83.7768C13.6345 84.897 13.2044 85.977 12.4252 86.7821C11.6461 87.5872 10.5808 88.0525 9.46066 88.077H9.27475ZM9.27475 81.5259H9.17853C8.57355 81.5391 7.99816 81.7903 7.57727 82.2251C7.1564 82.6598 6.92401 83.243 6.93056 83.8482C6.9371 84.4533 7.18207 85.0312 7.61227 85.4569C8.04245 85.8824 8.62314 86.1211 9.22827 86.1211C9.83339 86.1211 10.4141 85.8824 10.8443 85.4569C11.2745 85.0312 11.5194 84.4533 11.526 83.8482C11.5325 83.243 11.3001 82.6598 10.8793 82.2251C10.4584 81.7903 9.88298 81.5391 9.27801 81.5259H9.27475Z" fill="#E7F6FF"/>
<path d="M6.24131 95.2171C7.26085 95.1731 8.05169 94.311 8.00771 93.2914C7.96372 92.272 7.10158 91.481 6.08204 91.5251C5.06253 91.5691 4.27168 92.4312 4.31565 93.4508C4.35964 94.4702 5.22178 95.2612 6.24131 95.2171Z" fill="#E7F6FF"/>
<path d="M115.914 19.2865C114.898 19.2873 113.916 18.9248 113.145 18.2643C112.374 17.6038 111.865 16.689 111.71 15.6856C111.555 14.6822 111.764 13.6564 112.3 12.7939C112.835 11.9315 113.662 11.2893 114.63 10.9836C115.598 10.678 116.644 10.7291 117.578 11.1276C118.512 11.5262 119.272 12.2459 119.721 13.1564C120.17 14.067 120.279 15.1083 120.027 16.0918C119.774 17.0754 119.179 17.9361 118.347 18.5183C117.633 19.0174 116.784 19.2855 115.914 19.2865ZM115.901 12.737C115.306 12.7364 114.735 12.965 114.305 13.3754C113.876 13.7857 113.621 14.3459 113.595 14.9394C113.568 15.5329 113.771 16.1137 114.162 16.561C114.553 17.0082 115.102 17.2872 115.694 17.3399C116.285 17.3926 116.874 17.215 117.338 16.8438C117.802 16.4728 118.105 15.937 118.184 15.3482C118.262 14.7593 118.111 14.1629 117.76 13.6831C117.41 13.2033 116.888 12.8772 116.303 12.7729C116.17 12.7491 116.036 12.7371 115.901 12.737Z" fill="#E7F6FF"/>
<path d="M107.238 19.0542C108.074 18.4683 108.276 17.3161 107.69 16.4804C107.104 15.645 105.952 15.4426 105.117 16.0285C104.281 16.6145 104.079 17.7667 104.665 18.6023C105.251 19.4378 106.403 19.6402 107.238 19.0542Z" fill="#E7F6FF"/>
<path d="M210 41.2049C210 39.4118 209.287 37.6919 208.02 36.424C206.751 35.1558 205.032 34.4435 203.239 34.4435C203.088 34.4435 202.94 34.4435 202.793 34.4581C202.803 34.3114 202.808 34.163 202.808 34.0129C202.808 33.052 202.602 32.1021 202.206 31.2266C201.81 30.351 201.233 29.57 200.51 28.9356C199.788 28.3012 198.94 27.828 198.02 27.5475C197.102 27.2668 196.133 27.1854 195.181 27.3086C194.227 27.4318 193.312 27.7567 192.493 28.2616C191.676 28.7667 190.975 29.4402 190.438 30.2372C189.902 31.0344 189.541 31.9367 189.38 32.8841C189.22 33.8316 189.262 34.8024 189.507 35.7318C188.69 35.1393 187.75 34.7372 186.757 34.555C185.764 34.3728 184.743 34.4154 183.77 34.6794C182.794 34.9433 181.892 35.4221 181.126 36.0807C180.361 36.7392 179.754 37.5606 179.347 38.4847C178.941 39.4089 178.747 40.4122 178.779 41.4212C178.812 42.4302 179.069 43.4189 179.534 44.3154C179.997 45.2117 180.656 45.9927 181.462 46.601C182.268 47.2095 183.199 47.6298 184.189 47.831C184.593 48.9021 185.262 49.8533 186.134 50.5951C187.005 51.3368 188.052 51.8452 189.173 52.0723C190.295 52.2995 191.457 52.2382 192.548 51.8941C193.639 51.5498 194.626 50.934 195.415 50.1044C196.223 50.7137 197.155 51.1341 198.147 51.3347C199.139 51.5355 200.161 51.5113 201.141 51.2641C202.123 51.0169 203.035 50.5527 203.813 49.9063C204.59 49.2596 205.212 48.4468 205.634 47.5277C206.918 47.0412 208.022 46.1759 208.803 45.0465C209.582 43.9172 210 42.5774 210 41.2049Z" fill="white"/>
<path d="M31.4966 24.9522C31.4974 24.0638 31.3232 23.184 30.984 22.363C30.6447 21.5421 30.1469 20.796 29.519 20.1674C28.8913 19.5389 28.1459 19.0402 27.3252 18.7C26.5048 18.3597 25.6251 18.1843 24.7368 18.1842C24.5867 18.1842 24.4383 18.1842 24.2916 18.1989C24.3013 18.0521 24.3062 17.9037 24.3062 17.7536C24.3061 16.7927 24.1011 15.8428 23.7048 14.9673C23.3087 14.0917 22.7304 13.3107 22.0085 12.6763C21.2867 12.0419 20.4379 11.5687 19.5187 11.2881C18.5996 11.0075 17.6312 10.9261 16.6782 11.0493C15.7251 11.1725 14.8093 11.4974 13.9917 12.0024C13.1741 12.5074 12.4735 13.1808 11.9367 13.9779C11.3998 14.775 11.0391 15.6773 10.8785 16.6248C10.7178 17.5723 10.761 18.5431 11.0051 19.4725C10.1879 18.8799 9.24843 18.4777 8.25555 18.2957C7.26266 18.1136 6.24159 18.1561 5.26726 18.42C4.29295 18.684 3.39011 19.1628 2.625 19.8214C1.85989 20.4799 1.25193 21.3014 0.84573 22.2254C0.439536 23.1496 0.245413 24.1529 0.27761 25.1619C0.309808 26.1707 0.567508 27.1597 1.0318 28.056C1.49609 28.9524 2.15519 29.7334 2.96072 30.3417C3.76626 30.9501 4.69779 31.3705 5.68696 31.5717C6.09121 32.6419 6.76038 33.592 7.63182 34.3331C8.50325 35.0743 9.54849 35.5821 10.6697 35.8093C11.7909 36.0365 12.9513 35.9753 14.0425 35.6319C15.1337 35.2884 16.1199 34.6736 16.9088 33.8451C17.7159 34.4544 18.6493 34.8748 19.6404 35.0754C20.6315 35.2762 21.655 35.252 22.6354 35.0046C23.6159 34.7574 24.5285 34.2934 25.3059 33.6468C26.0834 33.0002 26.7059 32.1875 27.1276 31.2684C28.4104 30.7829 29.5153 29.9187 30.2957 28.7907C31.076 27.6626 31.4948 26.3239 31.4966 24.9522Z" fill="white"/>
<path d="M155.885 121.16H58.606V119.04H155.885C156.167 119.04 156.436 119.152 156.635 119.351C156.834 119.55 156.945 119.819 156.945 120.1C156.945 120.382 156.834 120.651 156.635 120.85C156.436 121.049 156.167 121.16 155.885 121.16Z" fill="#426572"/>
<path d="M54.2549 121.16H48.3072C48.0261 121.16 47.7565 121.049 47.5577 120.85C47.3589 120.651 47.2472 120.382 47.2472 120.1C47.2472 119.819 47.3589 119.55 47.5577 119.351C47.7565 119.152 48.0261 119.04 48.3072 119.04H54.2549C54.5361 119.04 54.8056 119.152 55.0044 119.351C55.2032 119.55 55.3149 119.819 55.3149 120.1C55.3149 120.382 55.2032 120.651 55.0044 120.85C54.8056 121.049 54.5361 121.16 54.2549 121.16Z" fill="#426572"/>
<path d="M44.4471 121.16H42.552C42.2709 121.16 42.0013 121.049 41.8025 120.85C41.6037 120.651 41.492 120.382 41.492 120.1C41.492 119.819 41.6037 119.55 41.8025 119.351C42.0013 119.152 42.2709 119.04 42.552 119.04H44.4471C44.7282 119.04 44.9978 119.152 45.1966 119.351C45.3954 119.55 45.5071 119.819 45.5071 120.1C45.5071 120.382 45.3954 120.651 45.1966 120.85C44.9978 121.049 44.7282 121.16 44.4471 121.16Z" fill="#426572"/>
<path d="M189.996 121.16H160.096V119.04H189.996C190.277 119.04 190.547 119.152 190.746 119.351C190.945 119.55 191.056 119.819 191.056 120.1C191.056 120.382 190.945 120.651 190.746 120.85C190.547 121.049 190.277 121.16 189.996 121.16Z" fill="#426572"/>
<path d="M37.1311 121.16H7.22968V119.04H37.1311C37.4123 119.04 37.6818 119.152 37.8806 119.351C38.0794 119.55 38.1911 119.819 38.1911 120.1C38.1911 120.382 38.0794 120.651 37.8806 120.85C37.6818 121.049 37.4123 121.16 37.1311 121.16Z" fill="#426572"/>
<path d="M46.6064 38.4166H155.517C157.483 38.4166 159.368 39.1971 160.758 40.5867C162.148 41.9765 162.93 43.8613 162.931 45.8271V116.322H39.1926V45.8271C39.1934 43.8613 39.9749 41.9765 41.3652 40.5867C42.7555 39.1971 44.6407 38.4166 46.6064 38.4166Z" fill="#EBF0F9"/>
<path d="M158.63 43.8224H43.9839V109.317H158.63V43.8224Z" fill="#637F91"/>
<path d="M43.1244 109.195H159.118C159.118 109.715 158.912 110.214 158.545 110.582C158.178 110.951 157.681 111.159 157.161 111.162H45.0896C44.5679 111.162 44.0677 110.954 43.6988 110.585C43.3301 110.217 43.1228 109.716 43.1228 109.195H43.1244Z" fill="white"/>
<g opacity="0.5">
<path opacity="0.5" d="M78.2429 43.5778L61.1012 109.685H52.4692L69.6109 43.5778H78.2429Z" fill="#A7BCD5"/>
<path opacity="0.5" d="M100.245 43.5778L83.1044 109.685H65.0021L82.1439 43.5778H100.245Z" fill="#A7BCD5"/>
</g>
<path d="M163.909 117.3H38.2141V42.6665C38.2158 41.2802 38.7672 39.9514 39.7474 38.9711C40.7275 37.991 42.0565 37.4396 43.4425 37.438H158.681C160.067 37.4396 161.396 37.991 162.376 38.9711C163.356 39.9514 163.908 41.2802 163.909 42.6665V117.3ZM40.1711 115.343H161.952V42.6665C161.951 41.799 161.607 40.9674 160.993 40.3541C160.38 39.7407 159.548 39.3958 158.681 39.395H43.4425C42.5752 39.3958 41.7435 39.7407 41.1302 40.3541C40.517 40.9674 40.1719 41.799 40.1711 42.6665V115.343Z" fill="#426572"/>
<path d="M23.587 113.988H181.855V114.508C181.855 116.195 181.185 117.813 179.993 119.006C178.799 120.198 177.181 120.868 175.495 120.868H29.9473C28.2605 120.868 26.6427 120.198 25.4499 119.006C24.2571 117.813 23.587 116.195 23.587 114.508V113.988Z" fill="#EBF0F9"/>
<path opacity="0.5" d="M181.044 117.305C180.697 118.21 180.082 118.988 179.283 119.536C178.484 120.085 177.537 120.378 176.568 120.378H27.8876C26.9189 120.378 25.9728 120.084 25.1742 119.535C24.3756 118.987 23.762 118.209 23.4142 117.305H181.044Z" fill="#A7BCD5"/>
<path d="M174.756 121.6H29.2102C27.2644 121.598 25.3991 120.824 24.0233 119.449C22.6474 118.073 21.8735 116.207 21.8714 114.262V112.763H182.096V114.262C182.095 116.208 181.32 118.073 179.944 119.449C178.567 120.825 176.702 121.599 174.756 121.6ZM23.8463 114.72C23.9612 116.063 24.5758 117.314 25.5687 118.226C26.5617 119.138 27.8605 119.643 29.2085 119.643H174.756C176.105 119.643 177.403 119.138 178.396 118.226C179.389 117.314 180.004 116.063 180.118 114.72H23.8463Z" fill="#426572"/>
<path d="M159.362 109.927H42.7576V42.8439H159.362V109.927ZM44.7146 107.97H157.405V44.8009H44.7146V107.97Z" fill="#426572"/>
<path d="M141.105 22.798V108.949H62.9539V22.798C62.9568 22.4097 63.1124 22.038 63.387 21.7634C63.6616 21.4888 64.0333 21.3332 64.4216 21.3303H139.631C139.72 21.3303 139.808 21.3386 139.895 21.3547C140.233 21.4172 140.539 21.5954 140.76 21.8588C140.98 22.1222 141.103 22.4544 141.105 22.798Z" fill="white"/>
<path d="M64.1835 28.4506H141.351V23.2678L139.876 21.3239H72.2936H65.6577L63.2001 23.2678V28.4506H64.1835Z" fill="#E2F2FF"/>
<path d="M142.33 109.927H62.2216V22.7979C62.2242 22.15 62.4827 21.5293 62.9409 21.071C63.3992 20.6128 64.0199 20.3543 64.6678 20.3517H139.874C140.522 20.3543 141.143 20.6128 141.601 21.071C142.059 21.5293 142.318 22.15 142.32 22.7979L142.33 109.927ZM64.1786 107.97H140.373V22.7979C140.37 22.6693 140.317 22.5466 140.226 22.4556C140.135 22.3646 140.012 22.312 139.884 22.3087H64.6743C64.5457 22.312 64.423 22.3646 64.332 22.4556C64.241 22.5466 64.1883 22.6693 64.1851 22.7979L64.1786 107.97Z" fill="#426572"/>
<path d="M136.544 24.3442H67.7974C67.2543 24.3442 66.814 24.7843 66.814 25.3276C66.814 25.8706 67.2543 26.311 67.7974 26.311H136.544C137.087 26.311 137.527 25.8706 137.527 25.3276C137.527 24.7843 137.087 24.3442 136.544 24.3442Z" fill="#CADCE8"/>
<path d="M88.6836 37.6793H72.6149V55.9887H88.6836V37.6793Z" fill="#E8837E"/>
<path d="M128.302 37.6793H90.2003V55.9887H128.302V37.6793Z" fill="#E8837E"/>
<path d="M128.301 58.0157H110.312V76.3252H128.301V58.0157Z" fill="#DDE4ED"/>
<path d="M108.795 58.0157H72.8171V76.3252H108.795V58.0157Z" fill="#DDE4ED"/>
<path d="M128.403 78.3524H72.8171V96.6618H128.403V78.3524Z" fill="#DDE4ED"/>
<path d="M128.894 99.1225H114.64V101.08H128.894V99.1225Z" fill="#DDE4ED"/>
<path d="M51.0291 104.283H27.6984C27.3141 104.286 26.9356 104.191 26.5975 104.009C26.1083 103.741 25.7952 103.303 25.7952 102.809L25.8082 70.7365C25.8085 70.5266 25.8648 70.3206 25.9713 70.1396C26.2681 69.6243 26.9384 69.2622 27.7114 69.2622H51.0422C51.8576 69.2622 52.5442 69.6569 52.8181 70.2081C52.9012 70.3713 52.9447 70.5517 52.9454 70.7349L52.9339 102.809C52.9339 103.549 52.218 104.167 51.2933 104.268C51.2056 104.278 51.1173 104.283 51.0291 104.283Z" fill="white"/>
<path d="M51.6635 104.037L28.3246 104.032C27.9405 104.035 27.5618 103.94 27.2238 103.758C26.7345 103.49 26.4214 103.052 26.4214 102.558L26.4344 70.4855C26.4348 70.2756 26.491 70.0696 26.5975 69.8886C26.8943 69.3733 27.5646 69.0112 28.3376 69.0112H28.6556L28.6507 100.591C28.6507 101.08 28.9671 101.524 29.4531 101.791C29.7912 101.974 30.1699 102.068 30.5539 102.065H53.5683V102.554C53.5683 103.295 52.8524 103.913 51.9277 104.014C51.8401 104.026 51.7519 104.034 51.6635 104.037Z" fill="#D6DEE9"/>
<path d="M51.3455 105.015H28.0131C27.463 105.018 26.9209 104.882 26.4377 104.619C25.6223 104.167 25.1331 103.397 25.1331 102.562L25.1461 70.4902C25.1481 70.1078 25.251 69.7325 25.4445 69.4024C25.9338 68.5626 26.9123 68.0391 28.0294 68.0391H51.3602C52.5018 68.0391 53.521 68.6017 53.9842 69.4758L54.1147 69.6764V69.7678C54.1992 70.0005 54.2422 70.2461 54.2419 70.4935L54.2288 102.566C54.2288 103.795 53.1476 104.849 51.7157 104.997C51.5927 105.01 51.4691 105.016 51.3455 105.015ZM28.0245 69.9879C27.5858 69.9879 27.2434 70.182 27.1341 70.3744C27.1127 70.407 27.1008 70.4449 27.0998 70.4837L27.0868 102.556C27.0868 102.663 27.2059 102.8 27.3836 102.9C27.5775 103.002 27.7938 103.055 28.0131 103.053H51.3439C51.3951 103.053 51.4463 103.051 51.4972 103.045C51.9864 102.993 52.2702 102.719 52.2702 102.556L52.2832 70.4837C52.2832 70.4643 52.28 70.445 52.2735 70.4266L52.1821 70.2864C51.9566 70.083 51.6604 69.9758 51.3569 69.9879H28.0262H28.0245Z" fill="#426572"/>
<path d="M48.6546 83.1403H32.8322V85.0973H48.6546V83.1403Z" fill="#426572"/>
<path d="M48.6546 79.0568H32.8322V81.0138H48.6546V79.0568Z" fill="#426572"/>
<path d="M48.6546 87.7671H32.8322V89.7241H48.6546V87.7671Z" fill="#426572"/>
<path opacity="0.2" d="M175.1 46.3164C176.24 44.1769 176.94 41.8308 177.158 39.4165C177.377 37.0021 177.109 34.5685 176.372 32.2591C175.635 29.9498 174.441 27.8116 172.864 25.9706C171.287 24.1297 169.358 22.6233 167.189 21.5402C165.02 20.4572 162.656 19.8195 160.237 19.6649C157.818 19.5103 155.392 19.8419 153.103 20.6399C150.814 21.438 148.708 22.6866 146.909 24.3117C145.11 25.937 143.655 27.9059 142.63 30.1026C141.214 32.7617 140.482 35.7313 140.5 38.7438C140.517 41.7564 141.285 44.7172 142.732 47.3593C144.179 50.0015 146.261 52.2419 148.791 53.8788C151.32 55.5157 154.216 56.4976 157.22 56.7358C156.696 56.8598 156.163 56.9602 155.623 57.0376C158.466 57.4474 161.365 57.1768 164.084 56.2481C166.801 55.3193 169.26 53.7589 171.258 51.6949C172.856 50.1517 174.159 48.3287 175.1 46.3164Z" fill="#606060"/>
<path d="M156.632 52.4969C166.657 52.4969 174.784 44.3702 174.784 34.3456C174.784 24.321 166.657 16.1944 156.632 16.1944C146.608 16.1944 138.481 24.321 138.481 34.3456C138.481 44.3702 146.608 52.4969 156.632 52.4969Z" fill="#A8EF9E"/>
<path d="M173.918 35.6427C173.918 38.2451 173.357 40.817 172.275 43.184C171.194 45.551 169.616 47.6577 167.649 49.3614C165.682 51.0652 163.371 52.326 160.874 53.0584C158.376 53.7908 155.751 53.9777 153.175 53.6063C157.494 52.982 161.444 50.8223 164.301 47.5231C167.158 44.224 168.73 40.006 168.73 35.6418C168.73 31.2777 167.158 27.0597 164.301 23.7605C161.444 20.4613 157.494 18.3018 153.175 17.6773C155.751 17.3058 158.377 17.4926 160.875 18.225C163.373 18.9574 165.684 20.2182 167.65 21.9221C169.617 23.626 171.196 25.733 172.277 28.1004C173.36 30.4677 173.919 33.04 173.919 35.6427H173.918Z" fill="#A7E59C"/>
<path d="M156.2 54.3386C152.417 54.3386 148.718 53.2166 145.572 51.1146C142.427 49.0126 139.975 46.0249 138.527 42.5295C137.079 39.034 136.7 35.1876 137.438 31.4768C138.176 27.766 139.998 24.3574 142.673 21.682C145.349 19.0068 148.757 17.1848 152.468 16.4467C156.179 15.7085 160.025 16.0874 163.521 17.5353C167.016 18.9831 170.004 21.4351 172.106 24.581C174.208 27.7267 175.33 31.4253 175.33 35.2088C175.325 40.2806 173.308 45.1431 169.722 48.7295C166.135 52.3157 161.272 54.3329 156.2 54.3386ZM156.2 18.0378C152.804 18.0378 149.484 19.045 146.66 20.9318C143.836 22.8189 141.635 25.5008 140.335 28.6387C139.035 31.7766 138.695 35.2296 139.357 38.5607C140.02 41.8919 141.656 44.9518 144.057 47.3534C146.459 49.7551 149.519 51.3907 152.85 52.0533C156.181 52.7159 159.634 52.3757 162.772 51.0759C165.91 49.7761 168.591 47.5752 170.478 44.751C172.365 41.9271 173.373 38.6069 173.373 35.2105C173.368 30.6575 171.558 26.2922 168.339 23.0728C165.118 19.8532 160.753 18.0425 156.2 18.0378Z" fill="#426572"/>
<path d="M165.369 27.7869C164.977 27.568 164.516 27.5093 164.082 27.623C163.648 27.7367 163.275 28.0141 163.042 28.3967L159.899 33.5338L154.878 41.7337L154.737 41.9636L148.94 37.3255L147.883 36.4809C147.19 35.9264 146.144 35.7519 145.477 36.4809C144.91 37.099 144.735 38.2926 145.477 38.8862L152.932 44.8486L153.989 45.6933C154.427 46.0456 154.845 46.238 155.417 46.1614C155.673 46.1301 155.918 46.0401 156.134 45.8987C156.349 45.7573 156.529 45.5683 156.66 45.346L159.803 40.2088L164.826 32.0106L165.985 30.1157C166.443 29.3558 166.17 28.2142 165.369 27.7869Z" fill="white"/>
<defs>
<linearGradient id="paint0_linear_34_1236" x1="0.489449" y1="60.5354" x2="204.879" y2="60.5354" gradientUnits="userSpaceOnUse">
<stop stop-color="#C5E9FA"/>
<stop offset="0.0208333" stop-color="#E6A851"/>
<stop offset="1" stop-color="#FFC805"/>
</linearGradient>
</defs>
</svg>
